<svg id="Слой_1" data-name="Слой 1" xmlns="http://www.w3.org/2000/svg" viewBox="0 0 241.9392 88.95769">
  <defs>
    <style>
      .cls-1 {
        fill: #f9b100;
      }
    </style>
  </defs>
  <path class="cls-1" d="M336.0491,303.41615a7.45943,7.45943,0,0,1-3.708-.93,6.76986,6.76986,0,0,1-2.604-2.565,7.55289,7.55289,0,0,1,0-7.309,6.77426,6.77426,0,0,1,2.604-2.564,7.45943,7.45943,0,0,1,3.708-.93,7.31228,7.31228,0,0,1,3.681.93,6.8386,6.8386,0,0,1,2.578,2.564,7.55289,7.55289,0,0,1,0,7.309,6.8341,6.8341,0,0,1-2.578,2.565,7.31228,7.31228,0,0,1-3.681.93m0,2.365a10.34367,10.34367,0,0,0,5.049-1.236,9.06052,9.06052,0,0,0,3.535-3.402,9.95621,9.95621,0,0,0,0-9.753,9.06747,9.06747,0,0,0-3.535-3.402,10.98561,10.98561,0,0,0-10.125,0,9.13916,9.13916,0,0,0-3.548,3.415,9.81969,9.81969,0,0,0,0,9.727,9.13213,9.13213,0,0,0,3.548,3.415,10.39915,10.39915,0,0,0,5.076,1.236m-17.966-18.816v13.873l-11.162-13.873h-2.179v18.603h2.658v-13.872l11.162,13.872h2.179v-18.603Zm-22.908,18.603h2.658v-18.603h-2.658Zm-12.411.213a10.01608,10.01608,0,0,0,3.987-.704,5.3442,5.3442,0,0,0,2.418-1.914,4.75275,4.75275,0,0,0,.797-2.671,4.05533,4.05533,0,0,0-.917-2.79,5.6865,5.6865,0,0,0-2.192-1.542,26.05089,26.05089,0,0,0-3.375-1.009,24.53235,24.53235,0,0,1-2.565-.705,4.40913,4.40913,0,0,1-1.581-.93,2.03546,2.03546,0,0,1-.638-1.555,2.52389,2.52389,0,0,1,1.129-2.126,5.74229,5.74229,0,0,1,3.389-.824,9.32162,9.32162,0,0,1,2.604.386,9.63628,9.63628,0,0,1,2.499,1.129l.877-2.126a8.63221,8.63221,0,0,0-2.738-1.222,12.50909,12.50909,0,0,0-3.242-.426,9.65392,9.65392,0,0,0-3.96.718,5.38719,5.38719,0,0,0-2.379,1.913,4.79884,4.79884,0,0,0-.784,2.685,4.15249,4.15249,0,0,0,.917,2.83,5.61329,5.61329,0,0,0,2.206,1.555,26.68063,26.68063,0,0,0,3.389,1.01q1.674.3975,2.591.717a4.1745,4.1745,0,0,1,1.541.917,2.058,2.058,0,0,1,.625,1.555,2.41562,2.41562,0,0,1-1.143,2.086,6.14749,6.14749,0,0,1-3.455.784,10,10,0,0,1-3.415-.598,8.14239,8.14239,0,0,1-2.724-1.555l-.983,2.073a8.31963,8.31963,0,0,0,3.069,1.688,12.73214,12.73214,0,0,0,4.053.651m-23.307-6.99,4.013-9.115,4.013,9.115Zm11.002,6.777h2.791l-8.451-18.603h-2.631l-8.425,18.603h2.737l2.047-4.65h9.886Zm-25.672.213a10.47717,10.47717,0,0,0,4-.744,8.28307,8.28307,0,0,0,3.096-2.179l-1.728-1.675a6.94132,6.94132,0,0,1-5.235,2.233,7.58356,7.58356,0,0,1-3.747-.93,6.73857,6.73857,0,0,1-2.618-2.565,7.54582,7.54582,0,0,1,0-7.309,6.74292,6.74292,0,0,1,2.618-2.564,7.58356,7.58356,0,0,1,3.747-.93,6.92837,6.92837,0,0,1,5.235,2.206l1.728-1.675a8.168,8.168,0,0,0-3.083-2.166,10.54529,10.54529,0,0,0-3.986-.731,10.34483,10.34483,0,0,0-5.05,1.236,9.07421,9.07421,0,0,0-3.535,3.402,9.96309,9.96309,0,0,0,0,9.753,9.08664,9.08664,0,0,0,3.522,3.402,10.2687,10.2687,0,0,0,5.036,1.236" transform="translate(-169.46199 -216.82345)"/>
  <g>
    <polygon class="cls-1" points="59.137 24.387 59.041 24.387 45.297 56.162 65.939 56.162 59.137 24.387"/>
    <polygon class="cls-1" points="6.898 24.387 6.802 24.387 0 56.162 20.642 56.162 6.898 24.387"/>
    <polygon class="cls-1" points="32.408 43.735 11.932 0 11.831 0 7.038 23.08 32.369 43.771 32.408 43.735"/>
    <polygon class="cls-1" points="33.531 43.735 54.007 0 54.108 0 58.901 23.08 33.57 43.771 33.531 43.735"/>
    <path class="cls-1" d="M270.435,273.73968c-7.36778-5.98414-12.51622-16.29677-12.51622-28.4173,0-12.12988,5.15617-22.44966,12.533-28.43171l-.02358-.06722c-17.70019,3.57716-29.0305,16.33754-29.0305,28.49893,0,12.15669,11.32173,24.9116,29.01021,28.49446Z" transform="translate(-169.46199 -216.82345)"/>
    <path class="cls-1" d="M271.72023,273.73968c7.36777-5.98414,12.51622-16.29677,12.51622-28.4173,0-12.12988-5.15617-22.44966-12.533-28.43171l.02358-.06722c17.70019,3.57716,29.0305,16.33754,29.0305,28.49893,0,12.15669-11.32173,24.9116-29.01021,28.49446Z" transform="translate(-169.46199 -216.82345)"/>
    <path class="cls-1" d="M381.07866,273.73968c-7.36777-5.98414-12.51621-16.29677-12.51621-28.4173,0-12.12988,5.15616-22.44966,12.533-28.43171l-.02357-.06722c-17.7002,3.57716-29.0305,16.33754-29.0305,28.49893,0,12.15669,11.32173,24.9116,29.0102,28.49446Z" transform="translate(-169.46199 -216.82345)"/>
    <path class="cls-1" d="M382.36393,273.73968c7.36777-5.98414,12.51621-16.29677,12.51621-28.4173,0-12.12988-5.15616-22.44966-12.533-28.43171l.02357-.06722c17.7002,3.57716,29.03051,16.33754,29.03051,28.49893,0,12.15669-11.32174,24.9116-29.01021,28.49446Z" transform="translate(-169.46199 -216.82345)"/>
    <polygon class="cls-1" points="157.009 32.031 156.866 32.031 145.412 56.162 168.462 56.162 157.009 32.031"/>
    <polygon class="cls-1" points="148.224 0.65 126.149 0.65 126.086 0.759 156.309 30.799 156.384 30.755 148.224 0.65"/>
    <polygon class="cls-1" points="165.65 0.65 187.726 0.65 187.789 0.759 157.566 30.799 157.491 30.755 165.65 0.65"/>
  </g>
</svg>
