<svg width="316" height="43" viewBox="0 0 316 43" fill="none" xmlns="http://www.w3.org/2000/svg">
<path d="M81.9911 27.6522C80.6637 27.6522 80 26.9747 80 25.6195V2.10941C80 0.754283 80.6637 0.0767081 81.9911 0.0767081C83.3185 0.0767081 83.9822 0.754283 83.9822 2.10941V12.0044H99.1071V2.10941C99.1071 0.754283 99.7708 0.0767081 101.098 0.0767081C102.4 0.0767081 103.051 0.754283 103.051 2.10941V25.6195C103.051 26.9747 102.4 27.6522 101.098 27.6522C99.7708 27.6522 99.1071 26.9747 99.1071 25.6195V15.3411H83.9822V25.6195C83.9822 26.9747 83.3185 27.6522 81.9911 27.6522Z" fill="white"/>
<path d="M117.701 27.7289C114.638 27.7289 112.226 26.8724 110.464 25.1593C108.703 23.4207 107.822 21.0556 107.822 18.0641C107.822 16.1465 108.205 14.4589 108.971 13.0015C109.762 11.5186 110.847 10.368 112.226 9.5498C113.604 8.73161 115.187 8.32252 116.974 8.32252C119.552 8.32252 121.581 9.1535 123.062 10.8154C124.542 12.4518 125.283 14.7146 125.283 17.6039C125.283 18.4732 124.772 18.9078 123.751 18.9078H111.575C111.855 22.7942 113.91 24.7374 117.739 24.7374C118.505 24.7374 119.309 24.648 120.152 24.469C120.994 24.2644 121.811 23.9065 122.602 23.3951C123.138 23.0883 123.598 22.986 123.981 23.0883C124.389 23.165 124.683 23.3823 124.862 23.7403C125.04 24.0727 125.066 24.4562 124.938 24.8909C124.836 25.2999 124.542 25.6579 124.057 25.9647C123.19 26.5528 122.168 27.0002 120.994 27.3071C119.845 27.5883 118.748 27.7289 117.701 27.7289ZM117.127 11.0456C115.519 11.0456 114.242 11.5441 113.298 12.5413C112.353 13.5385 111.779 14.868 111.575 16.53H122.028C121.951 14.7913 121.492 13.449 120.65 12.503C119.807 11.5314 118.633 11.0456 117.127 11.0456Z" fill="white"/>
<path d="M135.511 27.7289C133.519 27.7289 132.013 27.1537 130.992 26.0031C129.997 24.8525 129.499 23.165 129.499 20.9405V2.0327C129.499 0.728711 130.137 0.0767081 131.413 0.0767081C132.715 0.0767081 133.366 0.728711 133.366 2.0327V20.7104C133.366 23.2417 134.387 24.5073 136.43 24.5073C136.659 24.5073 136.863 24.4945 137.042 24.469C137.221 24.4434 137.4 24.4306 137.578 24.4306C137.885 24.405 138.102 24.4945 138.229 24.6991C138.357 24.8781 138.421 25.2616 138.421 25.8497C138.421 26.898 137.936 27.4988 136.966 27.6522C136.71 27.6778 136.455 27.6906 136.2 27.6906C135.97 27.7162 135.74 27.7289 135.511 27.7289Z" fill="white"/>
<path d="M147.215 27.7289C145.224 27.7289 143.717 27.1537 142.696 26.0031C141.701 24.8525 141.203 23.165 141.203 20.9405V2.0327C141.203 0.728711 141.841 0.0767081 143.118 0.0767081C144.419 0.0767081 145.07 0.728711 145.07 2.0327V20.7104C145.07 23.2417 146.091 24.5073 148.134 24.5073C148.363 24.5073 148.568 24.4945 148.746 24.469C148.925 24.4434 149.104 24.4306 149.282 24.4306C149.589 24.405 149.806 24.4945 149.933 24.6991C150.061 24.8781 150.125 25.2616 150.125 25.8497C150.125 26.898 149.64 27.4988 148.67 27.6522C148.414 27.6778 148.159 27.6906 147.904 27.6906C147.674 27.7162 147.444 27.7289 147.215 27.7289Z" fill="white"/>
<path d="M160.838 27.7289C158.949 27.7289 157.315 27.3326 155.937 26.54C154.558 25.7474 153.486 24.6352 152.72 23.2033C151.98 21.7459 151.61 20.0201 151.61 18.0257C151.61 16.0314 151.98 14.3183 152.72 12.8865C153.486 11.4291 154.558 10.3041 155.937 9.51145C157.315 8.71882 158.949 8.32252 160.838 8.32252C162.676 8.32252 164.284 8.71882 165.662 9.51145C167.041 10.3041 168.113 11.4291 168.879 12.8865C169.645 14.3183 170.028 16.0314 170.028 18.0257C170.028 20.0201 169.645 21.7459 168.879 23.2033C168.113 24.6352 167.041 25.7474 165.662 26.54C164.284 27.3326 162.676 27.7289 160.838 27.7289ZM160.838 24.7374C162.42 24.7374 163.697 24.1621 164.667 23.0116C165.637 21.861 166.122 20.199 166.122 18.0257C166.122 15.8524 165.637 14.2033 164.667 13.0782C163.697 11.9277 162.42 11.3524 160.838 11.3524C159.23 11.3524 157.94 11.9277 156.97 13.0782C156 14.2033 155.515 15.8524 155.515 18.0257C155.515 20.199 156 21.861 156.97 23.0116C157.94 24.1621 159.23 24.7374 160.838 24.7374Z" fill="white"/>
<path d="M197.524 27.7289C194.589 27.7289 192.112 27.1792 190.096 26.0798C188.079 24.9548 186.548 23.3568 185.501 21.2857C184.48 19.2147 183.969 16.7473 183.969 13.8837C183.969 11.0456 184.493 8.59098 185.539 6.51994C186.586 4.42334 188.105 2.81253 190.096 1.68752C192.087 0.562508 194.474 0 197.256 0C198.788 0 200.281 0.204548 201.736 0.613643C203.217 0.997169 204.582 1.63638 205.833 2.53128C206.267 2.83809 206.51 3.22162 206.561 3.68185C206.637 4.11651 206.561 4.5384 206.331 4.94749C206.127 5.33102 205.821 5.59948 205.412 5.75289C205.004 5.88074 204.544 5.79125 204.034 5.48443C203.038 4.79408 201.991 4.29549 200.894 3.98867C199.796 3.65628 198.584 3.49009 197.256 3.49009C194.27 3.49009 191.998 4.39777 190.44 6.21312C188.883 8.00291 188.105 10.5598 188.105 13.8837C188.105 17.2842 188.896 19.8667 190.479 21.6309C192.087 23.3951 194.486 24.2772 197.677 24.2772C199.617 24.2772 201.545 23.9576 203.459 23.3184V16.0698H198.52C197.422 16.0698 196.873 15.5584 196.873 14.5356C196.873 13.564 197.422 13.0782 198.52 13.0782H205.144C206.242 13.0782 206.791 13.628 206.791 14.7274V24.3923C206.791 25.3639 206.433 25.9903 205.718 26.2715C204.621 26.7062 203.332 27.0642 201.851 27.3454C200.37 27.6011 198.928 27.7289 197.524 27.7289Z" fill="white"/>
<path d="M221.243 27.7289C218.18 27.7289 215.768 26.8724 214.006 25.1593C212.245 23.4207 211.364 21.0556 211.364 18.0641C211.364 16.1465 211.747 14.4589 212.513 13.0015C213.304 11.5186 214.389 10.368 215.768 9.5498C217.146 8.73161 218.729 8.32252 220.516 8.32252C223.094 8.32252 225.123 9.1535 226.604 10.8154C228.085 12.4518 228.825 14.7146 228.825 17.6039C228.825 18.4732 228.314 18.9078 227.293 18.9078H215.117C215.398 22.7942 217.452 24.7374 221.282 24.7374C222.047 24.7374 222.851 24.648 223.694 24.469C224.536 24.2644 225.353 23.9065 226.144 23.3951C226.681 23.0883 227.14 22.986 227.523 23.0883C227.931 23.165 228.225 23.3823 228.404 23.7403C228.582 24.0727 228.608 24.4562 228.48 24.8909C228.378 25.2999 228.085 25.6579 227.6 25.9647C226.732 26.5528 225.71 27.0002 224.536 27.3071C223.388 27.5883 222.29 27.7289 221.243 27.7289ZM220.669 11.0456C219.061 11.0456 217.784 11.5441 216.84 12.5413C215.895 13.5385 215.321 14.868 215.117 16.53H225.57C225.494 14.7913 225.034 13.449 224.192 12.503C223.349 11.5314 222.175 11.0456 220.669 11.0456Z" fill="white"/>
<path d="M241.159 27.7289C239.27 27.7289 237.636 27.3326 236.257 26.54C234.879 25.7474 233.807 24.6352 233.041 23.2033C232.301 21.7459 231.931 20.0201 231.931 18.0257C231.931 16.0314 232.301 14.3183 233.041 12.8865C233.807 11.4291 234.879 10.3041 236.257 9.51145C237.636 8.71882 239.27 8.32252 241.159 8.32252C242.997 8.32252 244.605 8.71882 245.983 9.51145C247.362 10.3041 248.434 11.4291 249.2 12.8865C249.965 14.3183 250.348 16.0314 250.348 18.0257C250.348 20.0201 249.965 21.7459 249.2 23.2033C248.434 24.6352 247.362 25.7474 245.983 26.54C244.605 27.3326 242.997 27.7289 241.159 27.7289ZM241.159 24.7374C242.741 24.7374 244.018 24.1621 244.988 23.0116C245.958 21.861 246.443 20.199 246.443 18.0257C246.443 15.8524 245.958 14.2033 244.988 13.0782C244.018 11.9277 242.741 11.3524 241.159 11.3524C239.55 11.3524 238.261 11.9277 237.291 13.0782C236.321 14.2033 235.836 15.8524 235.836 18.0257C235.836 20.199 236.321 21.861 237.291 23.0116C238.261 24.1621 239.55 24.7374 241.159 24.7374Z" fill="white"/>
<path d="M256.645 27.6522C255.343 27.6522 254.692 27.0002 254.692 25.6963V10.3552C254.692 9.05122 255.317 8.39922 256.568 8.39922C257.819 8.39922 258.444 9.05122 258.444 10.3552V12.0044C258.955 10.8538 259.721 9.97168 260.742 9.35804C261.788 8.7444 263.052 8.38644 264.532 8.28417C265.477 8.20746 265.987 8.71883 266.064 9.81827C266.166 10.9433 265.617 11.5569 264.418 11.6592L263.69 11.7359C260.295 12.0683 258.597 13.8197 258.597 16.9902V25.6963C258.597 27.0002 257.946 27.6522 256.645 27.6522Z" fill="white"/>
<path d="M277.176 34.6324C275.798 34.6324 274.458 34.4918 273.156 34.2105C271.88 33.9293 270.718 33.4691 269.671 32.8298C269.212 32.5742 268.931 32.2546 268.829 31.871C268.727 31.4875 268.765 31.1168 268.944 30.7588C269.148 30.4008 269.416 30.1324 269.748 29.9534C270.105 29.8 270.488 29.8383 270.897 30.0685C272.02 30.6821 273.079 31.0912 274.075 31.2957C275.096 31.5259 276.04 31.6409 276.908 31.6409C280.482 31.6409 282.269 29.8511 282.269 26.2715V23.3184C281.733 24.4434 280.891 25.3255 279.742 25.9647C278.619 26.6039 277.355 26.9235 275.951 26.9235C274.266 26.9235 272.799 26.54 271.548 25.773C270.297 24.9803 269.327 23.8937 268.638 22.513C267.948 21.1067 267.604 19.4704 267.604 17.6039C267.604 15.7629 267.948 14.1521 268.638 12.7714C269.327 11.3652 270.297 10.2785 271.548 9.51145C272.799 8.71882 274.266 8.32252 275.951 8.32252C277.355 8.32252 278.606 8.64212 279.704 9.28133C280.827 9.89497 281.656 10.7387 282.193 11.8126V10.3552C282.193 9.05122 282.831 8.39922 284.107 8.39922C285.383 8.39922 286.022 9.05122 286.022 10.3552V25.8113C286.022 28.7517 285.269 30.9506 283.762 32.408C282.256 33.8909 280.061 34.6324 277.176 34.6324ZM276.87 23.8937C278.504 23.8937 279.806 23.3312 280.776 22.2062C281.746 21.0812 282.231 19.5471 282.231 17.6039C282.231 15.6607 281.746 14.1393 280.776 13.0399C279.806 11.9149 278.504 11.3524 276.87 11.3524C275.236 11.3524 273.935 11.9149 272.964 13.0399C271.994 14.1393 271.509 15.6607 271.509 17.6039C271.509 19.5471 271.994 21.0812 272.964 22.2062C273.935 23.3312 275.236 23.8937 276.87 23.8937Z" fill="white"/>
<path d="M293.364 4.48726C292.598 4.48726 291.998 4.29549 291.564 3.91196C291.156 3.52844 290.952 2.99151 290.952 2.30117C290.952 0.843769 291.756 0.115062 293.364 0.115062C294.972 0.115062 295.776 0.843769 295.776 2.30117C295.776 3.75857 294.972 4.48726 293.364 4.48726ZM293.364 27.6139C292.088 27.6139 291.449 26.9108 291.449 25.5045V10.547C291.449 9.16628 292.088 8.47593 293.364 8.47593C294.666 8.47593 295.317 9.16628 295.317 10.547V25.5045C295.317 26.9108 294.666 27.6139 293.364 27.6139Z" fill="white"/>
<path d="M306.734 27.7289C305.432 27.7289 304.27 27.4733 303.249 26.9619C302.228 26.4505 301.411 25.7602 300.799 24.8909C300.211 24.0215 299.918 23.0371 299.918 21.9377C299.918 20.557 300.262 19.4704 300.952 18.6777C301.666 17.8851 302.828 17.3098 304.436 16.9519C306.07 16.5939 308.265 16.4149 311.022 16.4149H312.324V15.4178C312.324 13.9604 312.018 12.912 311.405 12.2728C310.792 11.6336 309.784 11.314 308.38 11.314C307.563 11.314 306.708 11.4163 305.815 11.6208C304.947 11.8254 304.041 12.1706 303.096 12.6564C302.56 12.912 302.113 12.9504 301.756 12.7714C301.424 12.5924 301.194 12.3112 301.067 11.9277C300.939 11.5441 300.952 11.1478 301.105 10.7387C301.258 10.3296 301.577 10.0228 302.062 9.81827C303.185 9.3069 304.296 8.93616 305.393 8.70604C306.491 8.45036 307.525 8.32252 308.495 8.32252C311.048 8.32252 312.937 8.93616 314.162 10.1634C315.387 11.3652 316 13.2572 316 15.8396V25.6963C316 27.0002 315.4 27.6522 314.2 27.6522C312.975 27.6522 312.362 27.0002 312.362 25.6963V24.2772C311.903 25.3511 311.188 26.1948 310.218 26.8085C309.248 27.4221 308.087 27.7289 306.734 27.7289ZM307.499 24.9676C308.878 24.9676 310.027 24.4818 310.946 23.5102C311.865 22.5386 312.324 21.3113 312.324 19.8283V18.7928H311.06C309.197 18.7928 307.729 18.8823 306.657 19.0613C305.61 19.2402 304.857 19.5471 304.398 19.9817C303.964 20.3908 303.747 20.9661 303.747 21.7076C303.747 22.6792 304.079 23.4718 304.742 24.0855C305.406 24.6735 306.325 24.9676 307.499 24.9676Z" fill="white"/>
<path d="M80.3145 41.1102C80.1049 41.1102 80 40.9982 80 40.7742V33.9814C80 33.7574 80.1083 33.6454 80.325 33.6454H82.7883C83.5779 33.6454 84.1789 33.8344 84.5912 34.2124C85.0105 34.5903 85.2201 35.1293 85.2201 35.8292C85.2201 36.5221 85.0105 37.0611 84.5912 37.446C84.1789 37.824 83.5779 38.013 82.7883 38.013H80.6394V40.7742C80.6394 40.9982 80.5311 41.1102 80.3145 41.1102ZM80.6394 37.446H82.7358C83.9588 37.446 84.5702 36.9071 84.5702 35.8292C84.5702 34.7443 83.9588 34.2019 82.7358 34.2019H80.6394V37.446Z" fill="white"/>
<path d="M88.2131 41.1312C87.7379 41.1312 87.3256 41.0262 86.9762 40.8162C86.6268 40.5992 86.3543 40.2948 86.1586 39.9028C85.97 39.5038 85.8756 39.0349 85.8756 38.4959C85.8756 37.964 85.97 37.502 86.1586 37.1101C86.3543 36.7111 86.6268 36.4031 86.9762 36.1862C87.3256 35.9692 87.7379 35.8607 88.2131 35.8607C88.6953 35.8607 89.1111 35.9692 89.4605 36.1862C89.8099 36.4031 90.0789 36.7111 90.2676 37.1101C90.4633 37.502 90.5611 37.964 90.5611 38.4959C90.5611 39.0349 90.4633 39.5038 90.2676 39.9028C90.0789 40.2948 89.8099 40.5992 89.4605 40.8162C89.1111 41.0262 88.6953 41.1312 88.2131 41.1312ZM88.2131 40.5957C88.7302 40.5957 89.1425 40.4138 89.45 40.0498C89.7575 39.6788 89.9112 39.1609 89.9112 38.4959C89.9112 37.831 89.7575 37.3166 89.45 36.9526C89.1425 36.5886 88.7302 36.4066 88.2131 36.4066C87.696 36.4066 87.2837 36.5886 86.9762 36.9526C86.6758 37.3166 86.5255 37.831 86.5255 38.4959C86.5255 39.1609 86.6758 39.6788 86.9762 40.0498C87.2837 40.4138 87.696 40.5957 88.2131 40.5957Z" fill="white"/>
<path d="M93.5277 41.1102C93.325 41.1102 93.1818 41.0017 93.0979 40.7847L91.5151 36.3646C91.4592 36.2107 91.4592 36.0917 91.5151 36.0077C91.578 35.9237 91.6689 35.8817 91.7877 35.8817C91.9414 35.8817 92.0497 35.9727 92.1126 36.1547L93.5382 40.2913L95.0161 36.1862C95.086 35.9832 95.2188 35.8817 95.4145 35.8817C95.6101 35.8817 95.7464 35.9832 95.8233 36.1862L97.2593 40.3018L98.7268 36.1442C98.7617 36.0462 98.8036 35.9797 98.8526 35.9447C98.9015 35.9027 98.9679 35.8817 99.0517 35.8817C99.1915 35.8817 99.2753 35.9342 99.3033 36.0392C99.3382 36.1372 99.3347 36.2457 99.2928 36.3646L97.6995 40.7847C97.6157 41.0017 97.4724 41.1102 97.2698 41.1102C97.0601 41.1102 96.9169 41.0017 96.84 40.7847L95.404 36.7846L93.9679 40.7847C93.8841 41.0017 93.7373 41.1102 93.5277 41.1102Z" fill="white"/>
<path d="M102.763 41.1312C101.981 41.1312 101.362 40.9002 100.908 40.4383C100.461 39.9693 100.237 39.3289 100.237 38.5169C100.237 37.992 100.339 37.53 100.541 37.1311C100.744 36.7321 101.023 36.4206 101.38 36.1967C101.743 35.9727 102.159 35.8607 102.627 35.8607C103.305 35.8607 103.833 36.0812 104.21 36.5221C104.587 36.9631 104.776 37.5685 104.776 38.3385C104.776 38.5344 104.678 38.6324 104.482 38.6324H100.866C100.887 39.2624 101.058 39.7488 101.38 40.0918C101.708 40.4278 102.162 40.5957 102.742 40.5957C103.001 40.5957 103.249 40.5642 103.487 40.5012C103.731 40.4313 103.969 40.3088 104.199 40.1338C104.325 40.0498 104.434 40.0323 104.524 40.0813C104.615 40.1233 104.664 40.1968 104.671 40.3018C104.685 40.3998 104.633 40.4907 104.514 40.5747C104.29 40.7567 104.018 40.8967 103.696 40.9947C103.382 41.0857 103.071 41.1312 102.763 41.1312ZM102.638 36.3752C102.107 36.3752 101.691 36.5431 101.39 36.8791C101.097 37.2081 100.926 37.635 100.877 38.16H104.199C104.185 37.6 104.046 37.1626 103.78 36.8476C103.515 36.5326 103.134 36.3752 102.638 36.3752Z" fill="white"/>
<path d="M106.404 41.1102C106.188 41.1102 106.079 41.0017 106.079 40.7847V36.2177C106.079 35.9937 106.188 35.8817 106.404 35.8817C106.607 35.8817 106.708 35.9937 106.708 36.2177V36.8791C106.862 36.5501 107.089 36.2981 107.39 36.1232C107.697 35.9482 108.05 35.8572 108.448 35.8502C108.532 35.8432 108.602 35.8607 108.658 35.9027C108.714 35.9447 108.742 36.0112 108.742 36.1022C108.749 36.2982 108.647 36.4067 108.438 36.4276L108.291 36.4381C107.795 36.4801 107.411 36.6446 107.138 36.9316C106.866 37.2116 106.729 37.5895 106.729 38.0655V40.7847C106.729 41.0017 106.621 41.1102 106.404 41.1102Z" fill="white"/>
<path d="M111.812 41.1312C111.03 41.1312 110.411 40.9002 109.957 40.4383C109.51 39.9693 109.286 39.3289 109.286 38.5169C109.286 37.992 109.388 37.53 109.59 37.1311C109.793 36.7321 110.072 36.4206 110.429 36.1967C110.792 35.9727 111.208 35.8607 111.676 35.8607C112.354 35.8607 112.882 36.0812 113.259 36.5221C113.636 36.9631 113.825 37.5685 113.825 38.3385C113.825 38.5344 113.727 38.6324 113.531 38.6324H109.915C109.936 39.2624 110.107 39.7488 110.429 40.0918C110.757 40.4278 111.211 40.5957 111.791 40.5957C112.05 40.5957 112.298 40.5642 112.536 40.5012C112.78 40.4313 113.018 40.3088 113.248 40.1338C113.374 40.0498 113.483 40.0323 113.573 40.0813C113.664 40.1233 113.713 40.1968 113.72 40.3018C113.734 40.3998 113.682 40.4907 113.563 40.5747C113.339 40.7567 113.067 40.8967 112.745 40.9947C112.431 41.0857 112.12 41.1312 111.812 41.1312ZM111.687 36.3752C111.156 36.3752 110.74 36.5431 110.439 36.8791C110.146 37.2081 109.975 37.635 109.926 38.16H113.248C113.234 37.6 113.095 37.1626 112.829 36.8476C112.564 36.5326 112.183 36.3752 111.687 36.3752Z" fill="white"/>
<path d="M117.067 41.1312C116.606 41.1312 116.208 41.0262 115.873 40.8162C115.537 40.5992 115.275 40.2948 115.086 39.9028C114.905 39.5038 114.814 39.0349 114.814 38.4959C114.814 37.691 115.017 37.0506 115.422 36.5746C115.827 36.0987 116.376 35.8607 117.067 35.8607C117.473 35.8607 117.829 35.9552 118.137 36.1442C118.451 36.3262 118.685 36.5781 118.839 36.9001V33.9079C118.839 33.6909 118.944 33.5824 119.153 33.5824C119.37 33.5824 119.478 33.6909 119.478 33.9079V40.7847C119.478 41.0017 119.374 41.1102 119.164 41.1102C118.947 41.1102 118.839 41.0017 118.839 40.7847V40.0918C118.685 40.4138 118.451 40.6692 118.137 40.8582C117.829 41.0402 117.473 41.1312 117.067 41.1312ZM117.151 40.5957C117.668 40.5957 118.081 40.4138 118.388 40.0498C118.696 39.6788 118.849 39.1609 118.849 38.4959C118.849 37.831 118.696 37.3166 118.388 36.9526C118.081 36.5886 117.668 36.4066 117.151 36.4066C116.634 36.4066 116.222 36.5886 115.914 36.9526C115.614 37.3166 115.464 37.831 115.464 38.4959C115.464 39.1609 115.614 39.6788 115.914 40.0498C116.222 40.4138 116.634 40.5957 117.151 40.5957Z" fill="white"/>
<path d="M126.22 41.1312C125.808 41.1312 125.444 41.0402 125.13 40.8582C124.822 40.6692 124.592 40.4138 124.438 40.0918V40.7847C124.438 41.0017 124.333 41.1102 124.123 41.1102C123.907 41.1102 123.799 41.0017 123.799 40.7847V33.9079C123.799 33.6909 123.907 33.5824 124.123 33.5824C124.333 33.5824 124.438 33.6909 124.438 33.9079V36.9001C124.592 36.5781 124.822 36.3262 125.13 36.1442C125.444 35.9552 125.808 35.8607 126.22 35.8607C126.905 35.8607 127.45 36.0987 127.855 36.5746C128.267 37.0506 128.474 37.691 128.474 38.4959C128.474 39.0349 128.379 39.5038 128.191 39.9028C128.009 40.2948 127.747 40.5992 127.404 40.8162C127.069 41.0262 126.674 41.1312 126.22 41.1312ZM126.126 40.5957C126.643 40.5957 127.055 40.4138 127.362 40.0498C127.67 39.6788 127.824 39.1609 127.824 38.4959C127.824 37.831 127.67 37.3166 127.362 36.9526C127.055 36.5886 126.643 36.4066 126.126 36.4066C125.608 36.4066 125.196 36.5886 124.889 36.9526C124.581 37.3166 124.427 37.831 124.427 38.4959C124.427 39.1609 124.581 39.6788 124.889 40.0498C125.196 40.4138 125.608 40.5957 126.126 40.5957Z" fill="white"/>
<path d="M130.836 43C130.703 43 130.615 42.951 130.573 42.853C130.539 42.762 130.546 42.6535 130.594 42.5275L131.255 41.0262L129.263 36.3646C129.207 36.2387 129.204 36.1267 129.253 36.0287C129.302 35.9307 129.399 35.8817 129.546 35.8817C129.693 35.8817 129.801 35.9692 129.871 36.1442L131.601 40.3438L133.341 36.1442C133.383 36.0462 133.428 35.9797 133.477 35.9447C133.526 35.9027 133.596 35.8817 133.687 35.8817C133.819 35.8817 133.903 35.9307 133.938 36.0287C133.98 36.1267 133.977 36.2352 133.928 36.3541L131.192 42.748C131.108 42.916 130.989 43 130.836 43Z" fill="white"/>
<path d="M138.181 41.1102C137.971 41.1102 137.866 40.9982 137.866 40.7742V33.9184C137.866 33.6944 137.971 33.5824 138.181 33.5824C138.397 33.5824 138.506 33.6944 138.506 33.9184V40.7742C138.506 40.9982 138.397 41.1102 138.181 41.1102Z" fill="white"/>
<path d="M140.75 41.1102C140.554 41.1102 140.457 41.0052 140.457 40.7952V33.8974C140.457 33.6874 140.551 33.5824 140.74 33.5824C140.83 33.5824 140.9 33.5999 140.949 33.6349C140.998 33.6699 141.044 33.7259 141.085 33.8029L143.937 39.2204L146.767 33.8029C146.816 33.7259 146.861 33.6699 146.903 33.6349C146.952 33.5999 147.022 33.5824 147.113 33.5824C147.301 33.5824 147.396 33.6874 147.396 33.8974V40.7952C147.396 41.0052 147.298 41.1102 147.102 41.1102C146.9 41.1102 146.798 41.0052 146.798 40.7952V34.8948L144.241 39.7558C144.199 39.8328 144.157 39.8888 144.115 39.9238C144.08 39.9518 144.024 39.9658 143.947 39.9658C143.863 39.9658 143.797 39.9483 143.748 39.9133C143.706 39.8783 143.668 39.8258 143.633 39.7558L141.044 34.9053V40.7952C141.044 41.0052 140.946 41.1102 140.75 41.1102Z" fill="white"/>
<path d="M149.069 41.1102C148.929 41.1102 148.838 41.0682 148.796 40.9842C148.754 40.8932 148.761 40.7847 148.817 40.6587L151.763 33.8764C151.847 33.6804 151.976 33.5824 152.151 33.5824C152.325 33.5824 152.455 33.6804 152.539 33.8764L155.484 40.6587C155.547 40.7847 155.557 40.8932 155.515 40.9842C155.48 41.0682 155.397 41.1102 155.264 41.1102C155.166 41.1102 155.086 41.0857 155.023 41.0367C154.967 40.9807 154.918 40.9072 154.876 40.8162L154.132 39.0734H150.17L149.425 40.8162C149.341 41.0122 149.223 41.1102 149.069 41.1102ZM152.14 34.4433L150.411 38.5169H153.891L152.161 34.4433H152.14Z" fill="white"/>
<path d="M157.2 41.1102C156.997 41.1102 156.896 41.0017 156.896 40.7847V33.9184C156.896 33.6944 156.987 33.5824 157.168 33.5824C157.252 33.5824 157.315 33.5964 157.357 33.6244C157.406 33.6524 157.455 33.7049 157.504 33.7819L162.084 39.9553V33.8974C162.084 33.6874 162.186 33.5824 162.388 33.5824C162.584 33.5824 162.682 33.6874 162.682 33.8974V40.7847C162.682 41.0017 162.594 41.1102 162.42 41.1102C162.287 41.1102 162.172 41.0437 162.074 40.9107L157.493 34.7268V40.7847C157.493 41.0017 157.395 41.1102 157.2 41.1102Z" fill="white"/>
<path d="M166.92 41.1312C165.865 41.1312 165.005 40.8757 164.341 40.3648C164.223 40.2808 164.167 40.1828 164.174 40.0708C164.188 39.9518 164.24 39.8643 164.331 39.8083C164.422 39.7523 164.527 39.7663 164.645 39.8503C164.967 40.0953 165.306 40.2738 165.662 40.3858C166.025 40.4907 166.445 40.5432 166.92 40.5432C167.584 40.5432 168.08 40.4138 168.408 40.1548C168.744 39.8958 168.912 39.5563 168.912 39.1364C168.912 38.7864 168.789 38.5134 168.545 38.3175C168.307 38.1215 167.912 37.9675 167.36 37.8555L166.302 37.635C165.645 37.502 165.152 37.2781 164.824 36.9631C164.502 36.6481 164.341 36.2282 164.341 35.7032C164.341 35.2763 164.45 34.9018 164.666 34.5798C164.89 34.2579 165.197 34.0094 165.589 33.8344C165.98 33.6524 166.431 33.5614 166.941 33.5614C167.395 33.5614 167.811 33.6244 168.188 33.7504C168.573 33.8764 168.922 34.0759 169.236 34.3488C169.341 34.4328 169.387 34.5308 169.373 34.6428C169.359 34.7548 169.306 34.8388 169.216 34.8948C169.132 34.9438 169.03 34.9228 168.912 34.8318C168.618 34.5938 168.311 34.4223 167.989 34.3173C167.668 34.2054 167.318 34.1494 166.941 34.1494C166.354 34.1494 165.882 34.2894 165.526 34.5693C165.176 34.8493 165.002 35.2238 165.002 35.6927C165.002 36.0637 165.114 36.3576 165.337 36.5746C165.561 36.7846 165.921 36.9386 166.417 37.0366L167.486 37.2571C168.192 37.404 168.716 37.6245 169.058 37.9185C169.401 38.2055 169.572 38.6009 169.572 39.1049C169.572 39.5038 169.464 39.8573 169.247 40.1653C169.037 40.4663 168.733 40.7042 168.335 40.8792C167.937 41.0472 167.465 41.1312 166.92 41.1312Z" fill="white"/>
<path fill-rule="evenodd" clip-rule="evenodd" d="M36.3214 5.81595C37.2081 4.69804 38.9265 4.73479 39.7639 5.88956L60.5901 34.6107C61.6164 36.0259 60.5976 38 58.841 38H3.15906C1.38836 38 0.3732 35.9978 1.42809 34.586L16.456 14.4735C17.3095 13.3313 19.0273 13.3183 19.8982 14.4475L28.7739 25.9556C29.9571 27.4898 32.2784 27.4688 33.4337 25.9136L38.6975 18.8277C39.1841 18.1726 40.1136 18.0332 40.7735 18.5163C41.4334 18.9994 41.5739 19.9221 41.0873 20.5772L33.0983 31.3317C32.7997 31.7336 32.6385 32.2209 32.6385 32.7216C32.6385 34.0088 33.682 35.0524 34.9693 35.0524H51.5231C53.9096 35.0524 55.2898 32.3466 53.8889 30.4146L40.247 11.6014C39.1112 10.0349 36.7941 9.98492 35.5917 11.5009L30.1357 18.3798C29.6285 19.0193 28.695 19.1296 28.0508 18.626C27.4066 18.1225 27.2955 17.1958 27.8027 16.5563L36.3214 5.81595ZM27.3669 35.0524C28.6384 35.0524 29.6692 34.0216 29.6692 32.75C29.6692 32.2413 29.5007 31.7468 29.19 31.344L20.5482 20.1391C19.367 18.6076 17.0508 18.6253 15.8932 20.1746L8.26708 30.3809C6.82714 32.308 8.20238 35.0524 10.6081 35.0524H13.9565C14.6472 35.0524 15.3186 34.8121 15.8227 34.3398C18.0126 32.2883 20.6411 29.1683 21.0741 28.8341C21.9038 28.1938 22.6381 28.3899 23.1661 29.0126C23.6941 29.6354 23.7897 30.2146 22.9862 31.0893C22.8957 31.2055 22.8077 31.3166 22.7222 31.423C21.3787 33.0947 22.3687 35.0524 24.5134 35.0524H27.3669Z" fill="url(#paint0_linear_660_1862)" stroke="url(#paint1_linear_660_1862)" stroke-width="0.995151" stroke-linecap="round"/>
<defs>
<linearGradient id="paint0_linear_660_1862" x1="0.688786" y1="21.7604" x2="61.0004" y2="21.7604" gradientUnits="userSpaceOnUse">
<stop stop-color="#FEC600"/>
<stop offset="0.482292" stop-color="#FF8A00"/>
<stop offset="1" stop-color="#FF0000"/>
</linearGradient>
<linearGradient id="paint1_linear_660_1862" x1="0.688786" y1="21.7604" x2="61.0004" y2="21.7604" gradientUnits="userSpaceOnUse">
<stop stop-color="#FEC600"/>
<stop offset="0.482292" stop-color="#FF8A00"/>
<stop offset="1" stop-color="#FF0000"/>
</linearGradient>
</defs>
</svg>
