<svg width="199" height="27" viewBox="0 0 199 27" fill="none" xmlns="http://www.w3.org/2000/svg">
<path d="M52.2487 17.363C51.4162 17.363 51 16.9376 51 16.0867V1.32451C51 0.473619 51.4162 0.0481655 52.2487 0.0481655C53.0811 0.0481655 53.4973 0.473619 53.4973 1.32451V7.53763H62.9824V1.32451C62.9824 0.473619 63.3986 0.0481655 64.2311 0.0481655C65.0475 0.0481655 65.4557 0.473619 65.4557 1.32451V16.0867C65.4557 16.9376 65.0475 17.363 64.2311 17.363C63.3986 17.363 62.9824 16.9376 62.9824 16.0867V9.63275H53.4973V16.0867C53.4973 16.9376 53.0811 17.363 52.2487 17.363Z" fill="white"/>
<path d="M74.6431 17.4112C72.7221 17.4112 71.2092 16.8734 70.1047 15.7977C69.0001 14.706 68.4478 13.221 68.4478 11.3426C68.4478 10.1385 68.6879 9.07887 69.1682 8.16376C69.6644 7.23259 70.3448 6.51013 71.2092 5.99639C72.0737 5.48264 73.0662 5.22577 74.1868 5.22577C75.8037 5.22577 77.0764 5.74755 78.0049 6.79109C78.9334 7.81859 79.3976 9.23942 79.3976 11.0536C79.3976 11.5994 79.0775 11.8724 78.4371 11.8724H70.801C70.9771 14.3127 72.2658 15.5328 74.6671 15.5328C75.1474 15.5328 75.6516 15.4766 76.1799 15.3642C76.7082 15.2358 77.2205 15.011 77.7167 14.6899C78.0529 14.4973 78.3411 14.4331 78.5812 14.4973C78.8373 14.5455 79.0214 14.6819 79.1335 14.9067C79.2456 15.1154 79.2616 15.3562 79.1815 15.6291C79.1175 15.886 78.9334 16.1108 78.6292 16.3034C78.0849 16.6727 77.4446 16.9536 76.7082 17.1463C75.9878 17.3229 75.2994 17.4112 74.6431 17.4112ZM74.2829 6.93558C73.2743 6.93558 72.4739 7.24865 71.8816 7.87478C71.2893 8.50091 70.9291 9.33574 70.801 10.3793H77.3565C77.3085 9.28758 77.0204 8.44471 76.4921 7.8507C75.9638 7.24062 75.2274 6.93558 74.2829 6.93558Z" fill="white"/>
<path d="M85.8117 17.4112C84.563 17.4112 83.6185 17.05 82.9782 16.3275C82.3539 15.6051 82.0417 14.5455 82.0417 13.1487V1.27635C82.0417 0.457563 82.4419 0.0481655 83.2423 0.0481655C84.0588 0.0481655 84.467 0.457563 84.467 1.27635V13.0042C84.467 14.5936 85.1073 15.3883 86.388 15.3883C86.5321 15.3883 86.6602 15.3803 86.7722 15.3642C86.8843 15.3482 86.9963 15.3402 87.1084 15.3402C87.3005 15.3241 87.4366 15.3803 87.5166 15.5087C87.5967 15.6211 87.6367 15.8619 87.6367 16.2312C87.6367 16.8894 87.3325 17.2667 86.7242 17.363C86.5641 17.3791 86.404 17.3871 86.2439 17.3871C86.0999 17.4032 85.9558 17.4112 85.8117 17.4112Z" fill="white"/>
<path d="M93.1516 17.4112C91.9029 17.4112 90.9584 17.05 90.318 16.3275C89.6937 15.6051 89.3815 14.5455 89.3815 13.1487V1.27635C89.3815 0.457563 89.7818 0.0481655 90.5822 0.0481655C91.3986 0.0481655 91.8068 0.457563 91.8068 1.27635V13.0042C91.8068 14.5936 92.4472 15.3883 93.7279 15.3883C93.872 15.3883 94 15.3803 94.1121 15.3642C94.2241 15.3482 94.3362 15.3402 94.4483 15.3402C94.6404 15.3241 94.7764 15.3803 94.8565 15.5087C94.9365 15.6211 94.9765 15.8619 94.9765 16.2312C94.9765 16.8894 94.6724 17.2667 94.0641 17.363C93.904 17.3791 93.7439 17.3871 93.5838 17.3871C93.4397 17.4032 93.2956 17.4112 93.1516 17.4112Z" fill="white"/>
<path d="M101.695 17.4112C100.51 17.4112 99.4857 17.1624 98.6212 16.6647C97.7568 16.167 97.0844 15.4686 96.6042 14.5695C96.1399 13.6544 95.9078 12.5707 95.9078 11.3185C95.9078 10.0662 96.1399 8.99057 96.6042 8.09151C97.0844 7.1764 97.7568 6.46999 98.6212 5.9723C99.4857 5.47461 100.51 5.22577 101.695 5.22577C102.847 5.22577 103.856 5.47461 104.721 5.9723C105.585 6.46999 106.257 7.1764 106.738 8.09151C107.218 8.99057 107.458 10.0662 107.458 11.3185C107.458 12.5707 107.218 13.6544 106.738 14.5695C106.257 15.4686 105.585 16.167 104.721 16.6647C103.856 17.1624 102.847 17.4112 101.695 17.4112ZM101.695 15.5328C102.687 15.5328 103.488 15.1716 104.096 14.4491C104.704 13.7267 105.009 12.6831 105.009 11.3185C105.009 9.95385 104.704 8.91833 104.096 8.21192C103.488 7.48947 102.687 7.12824 101.695 7.12824C100.686 7.12824 99.8779 7.48947 99.2696 8.21192C98.6613 8.91833 98.3571 9.95385 98.3571 11.3185C98.3571 12.6831 98.6613 13.7267 99.2696 14.4491C99.8779 15.1716 100.686 15.5328 101.695 15.5328Z" fill="white"/>
<path d="M124.702 17.4112C122.861 17.4112 121.308 17.066 120.043 16.3757C118.778 15.6693 117.818 14.6659 117.162 13.3654C116.521 12.065 116.201 10.5158 116.201 8.71764C116.201 6.93558 116.529 5.39434 117.186 4.09392C117.842 2.77744 118.794 1.76601 120.043 1.0596C121.292 0.353203 122.789 0 124.534 0C125.494 0 126.431 0.128437 127.343 0.385311C128.272 0.626129 129.128 1.02749 129.912 1.58941C130.185 1.78206 130.337 2.02288 130.369 2.31186C130.417 2.58479 130.369 2.84969 130.225 3.10656C130.097 3.34738 129.904 3.51595 129.648 3.61228C129.392 3.69256 129.104 3.63637 128.784 3.44371C128.159 3.01024 127.503 2.69717 126.815 2.50452C126.126 2.29581 125.366 2.19145 124.534 2.19145C122.661 2.19145 121.236 2.76139 120.259 3.90126C119.283 5.02508 118.794 6.63055 118.794 8.71764C118.794 10.8529 119.291 12.4744 120.283 13.5822C121.292 14.6899 122.797 15.2438 124.798 15.2438C126.014 15.2438 127.223 15.0432 128.424 14.6418V10.0903H125.326C124.638 10.0903 124.293 9.76922 124.293 9.12704C124.293 8.51696 124.638 8.21192 125.326 8.21192H129.48C130.169 8.21192 130.513 8.5571 130.513 9.24744V15.3161C130.513 15.9262 130.289 16.3195 129.84 16.4961C129.152 16.769 128.344 16.9938 127.415 17.1704C126.487 17.3309 125.582 17.4112 124.702 17.4112Z" fill="white"/>
<path d="M139.576 17.4112C137.655 17.4112 136.142 16.8734 135.038 15.7977C133.933 14.706 133.381 13.221 133.381 11.3426C133.381 10.1385 133.621 9.07887 134.101 8.16376C134.598 7.23259 135.278 6.51013 136.142 5.99639C137.007 5.48264 137.999 5.22577 139.12 5.22577C140.737 5.22577 142.01 5.74755 142.938 6.79109C143.867 7.81859 144.331 9.23942 144.331 11.0536C144.331 11.5994 144.011 11.8724 143.37 11.8724H135.734C135.91 14.3127 137.199 15.5328 139.6 15.5328C140.081 15.5328 140.585 15.4766 141.113 15.3642C141.641 15.2358 142.154 15.011 142.65 14.6899C142.986 14.4973 143.274 14.4331 143.514 14.4973C143.771 14.5455 143.955 14.6819 144.067 14.9067C144.179 15.1154 144.195 15.3562 144.115 15.6291C144.051 15.886 143.867 16.1108 143.562 16.3034C143.018 16.6727 142.378 16.9536 141.641 17.1463C140.921 17.3229 140.233 17.4112 139.576 17.4112ZM139.216 6.93558C138.208 6.93558 137.407 7.24865 136.815 7.87478C136.222 8.50091 135.862 9.33574 135.734 10.3793H142.29C142.242 9.28758 141.954 8.44471 141.425 7.8507C140.897 7.24062 140.161 6.93558 139.216 6.93558Z" fill="white"/>
<path d="M152.066 17.4112C150.881 17.4112 149.856 17.1624 148.992 16.6647C148.127 16.167 147.455 15.4686 146.975 14.5695C146.511 13.6544 146.278 12.5707 146.278 11.3185C146.278 10.0662 146.511 8.99057 146.975 8.09151C147.455 7.1764 148.127 6.46999 148.992 5.9723C149.856 5.47461 150.881 5.22577 152.066 5.22577C153.218 5.22577 154.227 5.47461 155.091 5.9723C155.956 6.46999 156.628 7.1764 157.108 8.09151C157.589 8.99057 157.829 10.0662 157.829 11.3185C157.829 12.5707 157.589 13.6544 157.108 14.5695C156.628 15.4686 155.956 16.167 155.091 16.6647C154.227 17.1624 153.218 17.4112 152.066 17.4112ZM152.066 15.5328C153.058 15.5328 153.859 15.1716 154.467 14.4491C155.075 13.7267 155.379 12.6831 155.379 11.3185C155.379 9.95385 155.075 8.91833 154.467 8.21192C153.859 7.48947 153.058 7.12824 152.066 7.12824C151.057 7.12824 150.249 7.48947 149.64 8.21192C149.032 8.91833 148.728 9.95385 148.728 11.3185C148.728 12.6831 149.032 13.7267 149.64 14.4491C150.249 15.1716 151.057 15.5328 152.066 15.5328Z" fill="white"/>
<path d="M161.777 17.363C160.961 17.363 160.552 16.9536 160.552 16.1349V6.50211C160.552 5.68332 160.945 5.27393 161.729 5.27393C162.513 5.27393 162.906 5.68332 162.906 6.50211V7.53763C163.226 6.81517 163.706 6.26129 164.346 5.87598C165.003 5.49067 165.795 5.26591 166.724 5.20169C167.316 5.15352 167.636 5.47461 167.684 6.16496C167.748 6.87136 167.404 7.25668 166.652 7.32089L166.195 7.36905C164.066 7.57776 163.002 8.67751 163.002 10.6683V16.1349C163.002 16.9536 162.594 17.363 161.777 17.363Z" fill="white"/>
<path d="M174.653 21.7459C173.789 21.7459 172.948 21.6576 172.132 21.481C171.331 21.3044 170.603 21.0155 169.947 20.6141C169.658 20.4535 169.482 20.2529 169.418 20.012C169.354 19.7712 169.378 19.5384 169.49 19.3137C169.618 19.0889 169.786 18.9203 169.995 18.8079C170.219 18.7116 170.459 18.7357 170.715 18.8802C171.419 19.2655 172.084 19.5224 172.708 19.6508C173.348 19.7953 173.941 19.8675 174.485 19.8675C176.726 19.8675 177.847 18.7437 177.847 16.4961V14.6418C177.511 15.3482 176.982 15.9021 176.262 16.3034C175.558 16.7048 174.765 16.9055 173.885 16.9055C172.828 16.9055 171.908 16.6647 171.123 16.183C170.339 15.6853 169.73 15.003 169.298 14.1361C168.866 13.2531 168.65 12.2256 168.65 11.0536C168.65 9.89766 168.866 8.88622 169.298 8.01927C169.73 7.13627 170.339 6.45394 171.123 5.9723C171.908 5.47461 172.828 5.22577 173.885 5.22577C174.765 5.22577 175.55 5.42645 176.238 5.82781C176.942 6.21312 177.463 6.74293 177.799 7.41722V6.50211C177.799 5.68332 178.199 5.27393 178.999 5.27393C179.8 5.27393 180.2 5.68332 180.2 6.50211V16.2071C180.2 18.0534 179.728 19.4341 178.783 20.3492C177.839 21.2803 176.462 21.7459 174.653 21.7459ZM174.461 15.003C175.485 15.003 176.302 14.6498 176.91 13.9434C177.519 13.237 177.823 12.2737 177.823 11.0536C177.823 9.83344 177.519 8.87819 176.91 8.18784C176.302 7.48144 175.485 7.12824 174.461 7.12824C173.436 7.12824 172.62 7.48144 172.012 8.18784C171.403 8.87819 171.099 9.83344 171.099 11.0536C171.099 12.2737 171.403 13.237 172.012 13.9434C172.62 14.6498 173.436 15.003 174.461 15.003Z" fill="white"/>
<path d="M184.804 2.81758C184.324 2.81758 183.948 2.69717 183.676 2.45635C183.42 2.21553 183.292 1.87839 183.292 1.44492C183.292 0.529808 183.796 0.0722483 184.804 0.0722483C185.813 0.0722483 186.317 0.529808 186.317 1.44492C186.317 2.36003 185.813 2.81758 184.804 2.81758ZM184.804 17.339C184.004 17.339 183.604 16.8975 183.604 16.0145V6.62252C183.604 5.75557 184.004 5.32209 184.804 5.32209C185.621 5.32209 186.029 5.75557 186.029 6.62252V16.0145C186.029 16.8975 185.621 17.339 184.804 17.339Z" fill="white"/>
<path d="M193.189 17.4112C192.372 17.4112 191.644 17.2507 191.004 16.9296C190.363 16.6085 189.851 16.175 189.467 15.6291C189.099 15.0833 188.915 14.4652 188.915 13.7748C188.915 12.9079 189.131 12.2256 189.563 11.7279C190.011 11.2302 190.74 10.869 191.748 10.6442C192.773 10.4194 194.149 10.307 195.878 10.307H196.695V9.68092C196.695 8.76581 196.503 8.10756 196.118 7.7062C195.734 7.30483 195.102 7.10416 194.221 7.10416C193.709 7.10416 193.173 7.16838 192.613 7.29681C192.068 7.42525 191.5 7.64198 190.908 7.94702C190.571 8.10757 190.291 8.13165 190.067 8.01927C189.859 7.90689 189.715 7.73029 189.635 7.48947C189.555 7.24865 189.563 6.9998 189.659 6.74293C189.755 6.48605 189.955 6.2934 190.259 6.16496C190.964 5.84387 191.66 5.61108 192.348 5.46658C193.037 5.30604 193.685 5.22577 194.293 5.22577C195.894 5.22577 197.079 5.61108 197.847 6.3817C198.616 7.13627 199 8.32431 199 9.94582V16.1349C199 16.9536 198.624 17.363 197.871 17.363C197.103 17.363 196.719 16.9536 196.719 16.1349V15.2438C196.431 15.9181 195.982 16.4479 195.374 16.8332C194.766 17.2185 194.037 17.4112 193.189 17.4112ZM193.669 15.6773C194.534 15.6773 195.254 15.3723 195.83 14.7622C196.407 14.1521 196.695 13.3815 196.695 12.4503V11.8001H195.902C194.734 11.8001 193.813 11.8563 193.141 11.9687C192.484 12.0811 192.012 12.2737 191.724 12.5467C191.452 12.8035 191.316 13.1648 191.316 13.6303C191.316 14.2404 191.524 14.7381 191.94 15.1234C192.356 15.4927 192.933 15.6773 193.669 15.6773Z" fill="white"/>
<path d="M51.1972 25.8134C51.0658 25.8134 51 25.7431 51 25.6024V21.3371C51 21.1965 51.0679 21.1262 51.2038 21.1262H52.7486C53.2438 21.1262 53.6207 21.2449 53.8792 21.4822C54.1421 21.7195 54.2736 22.0579 54.2736 22.4974C54.2736 22.9325 54.1421 23.2709 53.8792 23.5126C53.6207 23.75 53.2438 23.8686 52.7486 23.8686H51.401V25.6024C51.401 25.7431 51.3331 25.8134 51.1972 25.8134ZM51.401 23.5126H52.7157C53.4826 23.5126 53.8661 23.1742 53.8661 22.4974C53.8661 21.8162 53.4826 21.4756 52.7157 21.4756H51.401V23.5126Z" fill="white"/>
<path d="M56.1506 25.8266C55.8526 25.8266 55.594 25.7606 55.3749 25.6288C55.1558 25.4925 54.9849 25.3014 54.8622 25.0552C54.7439 24.8047 54.6847 24.5103 54.6847 24.1719C54.6847 23.8379 54.7439 23.5478 54.8622 23.3017C54.9849 23.0512 55.1558 22.8578 55.3749 22.7215C55.594 22.5853 55.8526 22.5172 56.1506 22.5172C56.453 22.5172 56.7137 22.5853 56.9328 22.7215C57.152 22.8578 57.3207 23.0512 57.439 23.3017C57.5617 23.5478 57.6231 23.8379 57.6231 24.1719C57.6231 24.5103 57.5617 24.8047 57.439 25.0552C57.3207 25.3014 57.152 25.4925 56.9328 25.6288C56.7137 25.7606 56.453 25.8266 56.1506 25.8266ZM56.1506 25.4903C56.4749 25.4903 56.7335 25.3761 56.9263 25.1475C57.1191 24.9146 57.2155 24.5894 57.2155 24.1719C57.2155 23.7544 57.1191 23.4313 56.9263 23.2028C56.7335 22.9743 56.4749 22.86 56.1506 22.86C55.8263 22.86 55.5678 22.9743 55.3749 23.2028C55.1865 23.4313 55.0923 23.7544 55.0923 24.1719C55.0923 24.5894 55.1865 24.9146 55.3749 25.1475C55.5678 25.3761 55.8263 25.4903 56.1506 25.4903Z" fill="white"/>
<path d="M59.4835 25.8134C59.3564 25.8134 59.2665 25.7452 59.214 25.609L58.2214 22.8336C58.1863 22.7369 58.1863 22.6622 58.2214 22.6095C58.2608 22.5567 58.3178 22.5304 58.3923 22.5304C58.4887 22.5304 58.5566 22.5875 58.596 22.7018L59.49 25.2992L60.4169 22.7215C60.4607 22.5941 60.544 22.5304 60.6667 22.5304C60.7894 22.5304 60.8749 22.5941 60.9231 22.7215L61.8236 25.3058L62.7439 22.6952C62.7658 22.6336 62.7921 22.5919 62.8228 22.5699C62.8535 22.5436 62.8951 22.5304 62.9477 22.5304C63.0353 22.5304 63.0879 22.5633 63.1055 22.6293C63.1274 22.6908 63.1252 22.7589 63.0989 22.8336L62.0997 25.609C62.0471 25.7452 61.9573 25.8134 61.8302 25.8134C61.6987 25.8134 61.6089 25.7452 61.5607 25.609L60.6601 23.0973L59.7596 25.609C59.707 25.7452 59.6149 25.8134 59.4835 25.8134Z" fill="white"/>
<path d="M65.2754 25.8266C64.7846 25.8266 64.3967 25.6815 64.1119 25.3915C63.8314 25.097 63.6912 24.6949 63.6912 24.1851C63.6912 23.8554 63.7547 23.5654 63.8818 23.3149C64.0089 23.0643 64.1842 22.8688 64.4077 22.7281C64.6356 22.5875 64.8963 22.5172 65.1899 22.5172C65.615 22.5172 65.9459 22.6556 66.1825 22.9325C66.4192 23.2094 66.5375 23.5895 66.5375 24.073C66.5375 24.196 66.4761 24.2576 66.3534 24.2576H64.0856C64.0987 24.6531 64.2061 24.9586 64.4077 25.1739C64.6136 25.3849 64.8985 25.4903 65.2622 25.4903C65.4244 25.4903 65.5799 25.4706 65.7289 25.431C65.8823 25.3871 66.0313 25.3102 66.1759 25.2003C66.2548 25.1475 66.3227 25.1366 66.3797 25.1673C66.4367 25.1937 66.4674 25.2398 66.4717 25.3058C66.4805 25.3673 66.4476 25.4244 66.3731 25.4772C66.2329 25.5914 66.062 25.6793 65.8604 25.7409C65.6632 25.798 65.4682 25.8266 65.2754 25.8266ZM65.1965 22.8402C64.8634 22.8402 64.6027 22.9457 64.4142 23.1566C64.2302 23.3632 64.1228 23.6313 64.0921 23.9609H66.1759C66.1672 23.6093 66.0795 23.3346 65.913 23.1369C65.7465 22.9391 65.5076 22.8402 65.1965 22.8402Z" fill="white"/>
<path d="M67.5586 25.8134C67.4228 25.8134 67.3549 25.7452 67.3549 25.609V22.7413C67.3549 22.6007 67.4228 22.5304 67.5586 22.5304C67.6857 22.5304 67.7493 22.6007 67.7493 22.7413V23.1566C67.8457 22.9501 67.9881 22.7919 68.1765 22.682C68.3694 22.5721 68.5907 22.515 68.8405 22.5106C68.8931 22.5062 68.9369 22.5172 68.9719 22.5436C69.007 22.5699 69.0245 22.6117 69.0245 22.6688C69.0289 22.7919 68.9654 22.86 68.8339 22.8732L68.7419 22.8798C68.4307 22.9061 68.1897 23.0094 68.0188 23.1896C67.8479 23.3654 67.7624 23.6027 67.7624 23.9016V25.609C67.7624 25.7452 67.6945 25.8134 67.5586 25.8134Z" fill="white"/>
<path d="M70.9501 25.8266C70.4593 25.8266 70.0715 25.6815 69.7866 25.3915C69.5062 25.097 69.3659 24.6949 69.3659 24.1851C69.3659 23.8554 69.4295 23.5654 69.5566 23.3149C69.6836 23.0643 69.8589 22.8688 70.0824 22.7281C70.3103 22.5875 70.5711 22.5172 70.8647 22.5172C71.2898 22.5172 71.6206 22.6556 71.8573 22.9325C72.0939 23.2094 72.2123 23.5895 72.2123 24.073C72.2123 24.196 72.1509 24.2576 72.0282 24.2576H69.7603C69.7735 24.6531 69.8809 24.9586 70.0824 25.1739C70.2884 25.3849 70.5733 25.4903 70.937 25.4903C71.0991 25.4903 71.2547 25.4706 71.4037 25.431C71.5571 25.3871 71.7061 25.3102 71.8507 25.2003C71.9296 25.1475 71.9975 25.1366 72.0545 25.1673C72.1115 25.1937 72.1421 25.2398 72.1465 25.3058C72.1553 25.3673 72.1224 25.4244 72.0479 25.4772C71.9077 25.5914 71.7368 25.6793 71.5352 25.7409C71.338 25.798 71.143 25.8266 70.9501 25.8266ZM70.8713 22.8402C70.5382 22.8402 70.2775 22.9457 70.089 23.1566C69.905 23.3632 69.7976 23.6313 69.7669 23.9609H71.8507C71.8419 23.6093 71.7543 23.3346 71.5878 23.1369C71.4212 22.9391 71.1824 22.8402 70.8713 22.8402Z" fill="white"/>
<path d="M74.2457 25.8266C73.9565 25.8266 73.7067 25.7606 73.4963 25.6288C73.286 25.4925 73.1217 25.3014 73.0033 25.0552C72.8894 24.8047 72.8324 24.5103 72.8324 24.1719C72.8324 23.6665 72.9595 23.2643 73.2137 22.9655C73.4679 22.6666 73.8119 22.5172 74.2457 22.5172C74.4999 22.5172 74.7234 22.5765 74.9162 22.6952C75.1134 22.8094 75.2602 22.9677 75.3566 23.1698V21.291C75.3566 21.1548 75.4224 21.0866 75.5538 21.0866C75.6897 21.0866 75.7576 21.1548 75.7576 21.291V25.609C75.7576 25.7452 75.6919 25.8134 75.5604 25.8134C75.4246 25.8134 75.3566 25.7452 75.3566 25.609V25.1739C75.2602 25.3761 75.1134 25.5365 74.9162 25.6552C74.7234 25.7694 74.4999 25.8266 74.2457 25.8266ZM74.2983 25.4903C74.6226 25.4903 74.8812 25.3761 75.074 25.1475C75.2668 24.9146 75.3632 24.5894 75.3632 24.1719C75.3632 23.7544 75.2668 23.4313 75.074 23.2028C74.8812 22.9743 74.6226 22.86 74.2983 22.86C73.974 22.86 73.7155 22.9743 73.5226 23.2028C73.3342 23.4313 73.24 23.7544 73.24 24.1719C73.24 24.5894 73.3342 24.9146 73.5226 25.1475C73.7155 25.3761 73.974 25.4903 74.2983 25.4903Z" fill="white"/>
<path d="M79.9853 25.8266C79.7268 25.8266 79.4989 25.7694 79.3017 25.6552C79.1089 25.5365 78.9643 25.3761 78.8679 25.1739V25.609C78.8679 25.7452 78.8021 25.8134 78.6707 25.8134C78.5348 25.8134 78.4669 25.7452 78.4669 25.609V21.291C78.4669 21.1548 78.5348 21.0866 78.6707 21.0866C78.8021 21.0866 78.8679 21.1548 78.8679 21.291V23.1698C78.9643 22.9677 79.1089 22.8094 79.3017 22.6952C79.4989 22.5765 79.7268 22.5172 79.9853 22.5172C80.4148 22.5172 80.7566 22.6666 81.0108 22.9655C81.2694 23.2643 81.3986 23.6665 81.3986 24.1719C81.3986 24.5103 81.3395 24.8047 81.2212 25.0552C81.1072 25.3014 80.9429 25.4925 80.7282 25.6288C80.5178 25.7606 80.2702 25.8266 79.9853 25.8266ZM79.9262 25.4903C80.2505 25.4903 80.509 25.3761 80.7019 25.1475C80.8947 24.9146 80.9911 24.5894 80.9911 24.1719C80.9911 23.7544 80.8947 23.4313 80.7019 23.2028C80.509 22.9743 80.2505 22.86 79.9262 22.86C79.6019 22.86 79.3433 22.9743 79.1505 23.2028C78.9577 23.4313 78.8613 23.7544 78.8613 24.1719C78.8613 24.5894 78.9577 24.9146 79.1505 25.1475C79.3433 25.3761 79.6019 25.4903 79.9262 25.4903Z" fill="white"/>
<path d="M82.8799 27C82.7966 27 82.7418 26.9692 82.7156 26.9077C82.6936 26.8506 82.698 26.7825 82.7287 26.7033L83.1428 25.7606L81.8939 22.8336C81.8588 22.7545 81.8566 22.6842 81.8873 22.6227C81.918 22.5611 81.9793 22.5304 82.0714 22.5304C82.1634 22.5304 82.2313 22.5853 82.2751 22.6952L83.3598 25.3321L84.451 22.6952C84.4772 22.6336 84.5057 22.5919 84.5364 22.5699C84.5671 22.5436 84.6109 22.5304 84.6679 22.5304C84.7511 22.5304 84.8037 22.5611 84.8256 22.6227C84.8519 22.6842 84.8498 22.7523 84.8191 22.827L83.1034 26.8418C83.0508 26.9473 82.9763 27 82.8799 27Z" fill="white"/>
<path d="M87.4862 25.8134C87.3547 25.8134 87.289 25.7431 87.289 25.6024V21.2976C87.289 21.157 87.3547 21.0866 87.4862 21.0866C87.6221 21.0866 87.69 21.157 87.69 21.2976V25.6024C87.69 25.7431 87.6221 25.8134 87.4862 25.8134Z" fill="white"/>
<path d="M89.0975 25.8134C88.9748 25.8134 88.9134 25.7475 88.9134 25.6156V21.2844C88.9134 21.1526 88.9726 21.0866 89.0909 21.0866C89.1479 21.0866 89.1917 21.0976 89.2224 21.1196C89.2531 21.1416 89.2815 21.1767 89.3078 21.2251L91.0958 24.6267L92.8707 21.2251C92.9013 21.1767 92.9298 21.1416 92.9561 21.1196C92.9868 21.0976 93.0306 21.0866 93.0876 21.0866C93.2059 21.0866 93.2651 21.1526 93.2651 21.2844V25.6156C93.2651 25.7475 93.2037 25.8134 93.081 25.8134C92.9539 25.8134 92.8904 25.7475 92.8904 25.6156V21.9107L91.2865 24.963C91.2602 25.0113 91.2339 25.0465 91.2076 25.0684C91.1857 25.086 91.1506 25.0948 91.1024 25.0948C91.0498 25.0948 91.0082 25.0838 90.9775 25.0618C90.9512 25.0399 90.9271 25.0069 90.9052 24.963L89.2815 21.9173V25.6156C89.2815 25.7475 89.2202 25.8134 89.0975 25.8134Z" fill="white"/>
<path d="M94.3144 25.8134C94.2268 25.8134 94.1698 25.787 94.1435 25.7343C94.1172 25.6771 94.1216 25.609 94.1567 25.5299L96.0038 21.2712C96.0564 21.1482 96.1375 21.0866 96.247 21.0866C96.3566 21.0866 96.4377 21.1482 96.4902 21.2712L98.3374 25.5299C98.3768 25.609 98.3834 25.6771 98.3571 25.7343C98.3352 25.787 98.2826 25.8134 98.1994 25.8134C98.138 25.8134 98.0876 25.798 98.0482 25.7672C98.0131 25.7321 97.9824 25.6859 97.9561 25.6288L97.4894 24.5345H95.0046L94.5379 25.6288C94.4853 25.7518 94.4108 25.8134 94.3144 25.8134ZM96.2405 21.6272L95.1558 24.1851H97.3382L96.2536 21.6272H96.2405Z" fill="white"/>
<path d="M99.4133 25.8134C99.2863 25.8134 99.2227 25.7452 99.2227 25.609V21.2976C99.2227 21.157 99.2797 21.0866 99.3936 21.0866C99.4462 21.0866 99.4856 21.0954 99.5119 21.113C99.5426 21.1306 99.5733 21.1636 99.604 21.2119L102.477 25.0882V21.2844C102.477 21.1526 102.54 21.0866 102.667 21.0866C102.79 21.0866 102.851 21.1526 102.851 21.2844V25.609C102.851 25.7452 102.796 25.8134 102.687 25.8134C102.604 25.8134 102.531 25.7716 102.47 25.6881L99.5974 21.8052V25.609C99.5974 25.7452 99.536 25.8134 99.4133 25.8134Z" fill="white"/>
<path d="M105.509 25.8266C104.847 25.8266 104.308 25.6661 103.892 25.3453C103.818 25.2926 103.782 25.231 103.787 25.1607C103.796 25.086 103.828 25.0311 103.885 24.9959C103.942 24.9608 104.008 24.9695 104.083 25.0223C104.284 25.1761 104.497 25.2882 104.72 25.3585C104.948 25.4244 105.211 25.4574 105.509 25.4574C105.925 25.4574 106.237 25.3761 106.443 25.2135C106.653 25.0509 106.758 24.8377 106.758 24.574C106.758 24.3543 106.681 24.1829 106.528 24.0598C106.379 23.9367 106.131 23.8401 105.785 23.7697L105.121 23.6313C104.709 23.5478 104.4 23.4072 104.194 23.2094C103.993 23.0116 103.892 22.7479 103.892 22.4183C103.892 22.1502 103.96 21.9151 104.096 21.7129C104.236 21.5107 104.429 21.3547 104.674 21.2449C104.92 21.1306 105.202 21.0735 105.522 21.0735C105.807 21.0735 106.068 21.113 106.305 21.1921C106.546 21.2712 106.765 21.3965 106.962 21.5679C107.028 21.6206 107.056 21.6821 107.047 21.7525C107.039 21.8228 107.006 21.8755 106.949 21.9107C106.896 21.9414 106.833 21.9283 106.758 21.8711C106.574 21.7217 106.381 21.614 106.18 21.5481C105.978 21.4778 105.759 21.4426 105.522 21.4426C105.154 21.4426 104.858 21.5305 104.635 21.7063C104.416 21.8821 104.306 22.1172 104.306 22.4117C104.306 22.6446 104.376 22.8292 104.517 22.9655C104.657 23.0973 104.882 23.194 105.194 23.2555L105.864 23.394C106.307 23.4863 106.635 23.6247 106.85 23.8093C107.065 23.9895 107.172 24.2378 107.172 24.5542C107.172 24.8047 107.104 25.0267 106.968 25.2201C106.837 25.409 106.646 25.5585 106.397 25.6683C106.147 25.7738 105.851 25.8266 105.509 25.8266Z" fill="white"/>
<path fill-rule="evenodd" clip-rule="evenodd" d="M23.3702 3.51924C23.9318 2.80785 25.0201 2.83123 25.5505 3.56608L38.7404 21.8431C39.3904 22.7437 38.7451 24 37.6326 24H2.36741C1.24596 24 0.603027 22.7259 1.27112 21.8274L10.7888 9.02861C11.3293 8.30172 12.4173 8.29345 12.9689 9.01205L18.5963 16.3435C19.3412 17.3138 20.808 17.3006 21.5352 16.317L24.8751 11.7995C25.1833 11.3826 25.7719 11.2938 26.1899 11.6013C26.6079 11.9087 26.6968 12.4959 26.3886 12.9127L21.3286 19.757C21.1397 20.0125 21.0377 20.3218 21.0377 20.6396C21.0377 21.4595 21.7024 22.1242 22.5224 22.1242H33.0295C34.5301 22.1242 35.3995 20.4245 34.5214 19.2077L25.8503 7.19236C25.1354 6.20169 23.6712 6.17013 22.9143 7.12907L19.4526 11.5144C19.1314 11.9214 18.5402 11.9915 18.1322 11.6711C17.7242 11.3507 17.6538 10.761 17.9751 10.354L23.3702 3.51924ZM17.6906 22.1242C18.5006 22.1242 19.1572 21.4676 19.1572 20.6577C19.1572 20.3348 19.0506 20.0209 18.854 19.7648L13.3743 12.6259C12.6308 11.6572 11.1672 11.6684 10.4385 12.6483L5.57644 19.1865C4.6738 20.4003 5.54016 22.1242 7.05281 22.1242H9.20732C9.6437 22.1242 10.0677 21.9719 10.3855 21.6728C11.7729 20.3673 13.4392 18.38 13.7136 18.1672C14.2391 17.7597 14.7041 17.8845 15.0385 18.2808C15.3729 18.6771 15.4335 19.0457 14.9246 19.6023C14.8603 19.6852 14.798 19.7641 14.7377 19.8393C13.8933 20.891 14.5198 22.1242 15.8686 22.1242H17.6906Z" fill="url(#paint0_linear_660_2201)" stroke="url(#paint1_linear_660_2201)" stroke-width="0.626535" stroke-linecap="round"/>
<defs>
<linearGradient id="paint0_linear_660_2201" x1="0.802898" y1="13.6657" x2="39.0002" y2="13.6657" gradientUnits="userSpaceOnUse">
<stop stop-color="#FEC600"/>
<stop offset="0.482292" stop-color="#FF8A00"/>
<stop offset="1" stop-color="#FF0000"/>
</linearGradient>
<linearGradient id="paint1_linear_660_2201" x1="0.802898" y1="13.6657" x2="39.0002" y2="13.6657" gradientUnits="userSpaceOnUse">
<stop stop-color="#FEC600"/>
<stop offset="0.482292" stop-color="#FF8A00"/>
<stop offset="1" stop-color="#FF0000"/>
</linearGradient>
</defs>
</svg>
