<svg width="215" height="30" viewBox="0 0 215 30" fill="none" xmlns="http://www.w3.org/2000/svg">
<path d="M56.3499 19.3812C55.45 19.3812 55 18.9242 55 18.0103V2.15462C55 1.2407 55.45 0.783728 56.3499 0.783728C57.2499 0.783728 57.6998 1.2407 57.6998 2.15462V8.82796H67.954V2.15462C67.954 1.2407 68.4039 0.783728 69.3039 0.783728C70.1865 0.783728 70.6278 1.2407 70.6278 2.15462V18.0103C70.6278 18.9242 70.1865 19.3812 69.3039 19.3812C68.4039 19.3812 67.954 18.9242 67.954 18.0103V11.0783H57.6998V18.0103C57.6998 18.9242 57.2499 19.3812 56.3499 19.3812Z" fill="white"/>
<path d="M80.5601 19.4329C78.4833 19.4329 76.8478 18.8552 75.6537 17.6999C74.4595 16.5273 73.8625 14.9323 73.8625 12.9148C73.8625 11.6215 74.1221 10.4834 74.6412 9.50048C75.1777 8.50034 75.9133 7.72436 76.8478 7.17256C77.7824 6.62076 78.8554 6.34486 80.0669 6.34486C81.8148 6.34486 83.1907 6.90529 84.1945 8.02613C85.1983 9.12974 85.7002 10.6558 85.7002 12.6044C85.7002 13.1907 85.354 13.4838 84.6618 13.4838H76.4065C76.5969 16.1049 77.9901 17.4154 80.586 17.4154C81.1052 17.4154 81.6504 17.355 82.2215 17.2343C82.7926 17.0964 83.3465 16.855 83.883 16.5101C84.2464 16.3032 84.5579 16.2342 84.8175 16.3032C85.0944 16.3549 85.2935 16.5015 85.4146 16.7429C85.5357 16.967 85.5531 17.2257 85.4665 17.5188C85.3973 17.7948 85.1983 18.0362 84.8694 18.2431C84.281 18.6397 83.5887 18.9415 82.7926 19.1484C82.0138 19.3381 81.2697 19.4329 80.5601 19.4329ZM80.1707 8.18133C79.0804 8.18133 78.2151 8.51758 77.5747 9.19009C76.9344 9.8626 76.545 10.7593 76.4065 11.8801H83.4936C83.4416 10.7075 83.1301 9.80224 82.559 9.16422C81.9879 8.50896 81.1918 8.18133 80.1707 8.18133Z" fill="white"/>
<path d="M92.6343 19.4329C91.2844 19.4329 90.2633 19.0449 89.571 18.269C88.8961 17.493 88.5586 16.3549 88.5586 14.8547V2.10288C88.5586 1.22345 88.9912 0.783728 89.8566 0.783728C90.7392 0.783728 91.1805 1.22345 91.1805 2.10288V14.6995C91.1805 16.4066 91.8728 17.2602 93.2573 17.2602C93.4131 17.2602 93.5515 17.2516 93.6727 17.2343C93.7938 17.2171 93.915 17.2085 94.0361 17.2085C94.2438 17.1912 94.3909 17.2516 94.4774 17.3895C94.564 17.5102 94.6072 17.7689 94.6072 18.1655C94.6072 18.8725 94.2784 19.2777 93.6207 19.3812C93.4477 19.3984 93.2746 19.407 93.1015 19.407C92.9458 19.4243 92.79 19.4329 92.6343 19.4329Z" fill="white"/>
<path d="M100.569 19.4329C99.2193 19.4329 98.1983 19.0449 97.506 18.269C96.831 17.493 96.4936 16.3549 96.4936 14.8547V2.10288C96.4936 1.22345 96.9262 0.783728 97.7916 0.783728C98.6742 0.783728 99.1155 1.22345 99.1155 2.10288V14.6995C99.1155 16.4066 99.8078 17.2602 101.192 17.2602C101.348 17.2602 101.487 17.2516 101.608 17.2343C101.729 17.2171 101.85 17.2085 101.971 17.2085C102.179 17.1912 102.326 17.2516 102.412 17.3895C102.499 17.5102 102.542 17.7689 102.542 18.1655C102.542 18.8725 102.213 19.2777 101.556 19.3812C101.383 19.3984 101.21 19.407 101.037 19.407C100.881 19.4243 100.725 19.4329 100.569 19.4329Z" fill="white"/>
<path d="M109.805 19.4329C108.525 19.4329 107.417 19.1656 106.482 18.6311C105.548 18.0965 104.821 17.3464 104.302 16.3808C103.8 15.3979 103.549 14.2339 103.549 12.8889C103.549 11.5439 103.8 10.3885 104.302 9.42288C104.821 8.43998 105.548 7.68125 106.482 7.14669C107.417 6.61213 108.525 6.34486 109.805 6.34486C111.051 6.34486 112.142 6.61213 113.076 7.14669C114.011 7.68125 114.738 8.43998 115.257 9.42288C115.776 10.3885 116.036 11.5439 116.036 12.8889C116.036 14.2339 115.776 15.3979 115.257 16.3808C114.738 17.3464 114.011 18.0965 113.076 18.6311C112.142 19.1656 111.051 19.4329 109.805 19.4329ZM109.805 17.4154C110.878 17.4154 111.744 17.0274 112.401 16.2514C113.059 15.4755 113.388 14.3546 113.388 12.8889C113.388 11.4232 113.059 10.3109 112.401 9.55221C111.744 8.77624 110.878 8.38825 109.805 8.38825C108.715 8.38825 107.841 8.77624 107.183 9.55221C106.526 10.3109 106.197 11.4232 106.197 12.8889C106.197 14.3546 106.526 15.4755 107.183 16.2514C107.841 17.0274 108.715 17.4154 109.805 17.4154Z" fill="white"/>
<path d="M134.677 19.4329C132.687 19.4329 131.008 19.0622 129.641 18.3207C128.274 17.562 127.236 16.4842 126.526 15.0875C125.834 13.6907 125.488 12.0267 125.488 10.0954C125.488 8.18133 125.842 6.52591 126.552 5.12917C127.262 3.71517 128.291 2.62882 129.641 1.87009C130.991 1.11136 132.609 0.731995 134.496 0.731995C135.534 0.731995 136.547 0.869946 137.533 1.14585C138.537 1.4045 139.463 1.8356 140.311 2.43913C140.605 2.64606 140.769 2.90472 140.804 3.2151C140.856 3.50825 140.804 3.79277 140.648 4.06868C140.51 4.32733 140.302 4.50839 140.025 4.61185C139.748 4.69807 139.437 4.63772 139.091 4.43079C138.416 3.96521 137.706 3.62895 136.962 3.42203C136.218 3.19786 135.396 3.08578 134.496 3.08578C132.471 3.08578 130.931 3.69793 129.875 4.92224C128.819 6.12931 128.291 7.85369 128.291 10.0954C128.291 12.3888 128.828 14.1304 129.901 15.3203C130.991 16.5101 132.618 17.105 134.781 17.105C136.097 17.105 137.403 16.8895 138.701 16.4584V11.5697H135.352C134.608 11.5697 134.236 11.2249 134.236 10.5351C134.236 9.87984 134.608 9.55221 135.352 9.55221H139.843C140.588 9.55221 140.96 9.92295 140.96 10.6644V17.1826C140.96 17.8379 140.717 18.2603 140.233 18.45C139.489 18.7432 138.615 18.9846 137.611 19.1743C136.607 19.3467 135.629 19.4329 134.677 19.4329Z" fill="white"/>
<path d="M150.758 19.4329C148.681 19.4329 147.046 18.8552 145.852 17.6999C144.658 16.5273 144.06 14.9323 144.06 12.9148C144.06 11.6215 144.32 10.4834 144.839 9.50048C145.376 8.50034 146.111 7.72436 147.046 7.17256C147.98 6.62076 149.053 6.34486 150.265 6.34486C152.013 6.34486 153.389 6.90529 154.393 8.02613C155.396 9.12974 155.898 10.6558 155.898 12.6044C155.898 13.1907 155.552 13.4838 154.86 13.4838H146.605C146.795 16.1049 148.188 17.4154 150.784 17.4154C151.303 17.4154 151.848 17.355 152.42 17.2343C152.991 17.0964 153.544 16.855 154.081 16.5101C154.444 16.3032 154.756 16.2342 155.016 16.3032C155.292 16.3549 155.491 16.5015 155.613 16.7429C155.734 16.967 155.751 17.2257 155.665 17.5188C155.595 17.7948 155.396 18.0362 155.067 18.2431C154.479 18.6397 153.787 18.9415 152.991 19.1484C152.212 19.3381 151.468 19.4329 150.758 19.4329ZM150.369 8.18133C149.278 8.18133 148.413 8.51758 147.773 9.19009C147.132 9.8626 146.743 10.7593 146.605 11.8801H153.692C153.64 10.7075 153.328 9.80224 152.757 9.16422C152.186 8.50896 151.39 8.18133 150.369 8.18133Z" fill="white"/>
<path d="M164.26 19.4329C162.979 19.4329 161.872 19.1656 160.937 18.6311C160.003 18.0965 159.276 17.3464 158.757 16.3808C158.255 15.3979 158.004 14.2339 158.004 12.8889C158.004 11.5439 158.255 10.3885 158.757 9.42288C159.276 8.43998 160.003 7.68125 160.937 7.14669C161.872 6.61213 162.979 6.34486 164.26 6.34486C165.506 6.34486 166.596 6.61213 167.531 7.14669C168.466 7.68125 169.192 8.43998 169.712 9.42288C170.231 10.3885 170.49 11.5439 170.49 12.8889C170.49 14.2339 170.231 15.3979 169.712 16.3808C169.192 17.3464 168.466 18.0965 167.531 18.6311C166.596 19.1656 165.506 19.4329 164.26 19.4329ZM164.26 17.4154C165.333 17.4154 166.198 17.0274 166.856 16.2514C167.514 15.4755 167.843 14.3546 167.843 12.8889C167.843 11.4232 167.514 10.3109 166.856 9.55221C166.198 8.77624 165.333 8.38825 164.26 8.38825C163.17 8.38825 162.296 8.77624 161.638 9.55221C160.98 10.3109 160.652 11.4232 160.652 12.8889C160.652 14.3546 160.98 15.4755 161.638 16.2514C162.296 17.0274 163.17 17.4154 164.26 17.4154Z" fill="white"/>
<path d="M174.759 19.3812C173.876 19.3812 173.435 18.9415 173.435 18.062V7.71574C173.435 6.83631 173.859 6.39659 174.707 6.39659C175.555 6.39659 175.979 6.83631 175.979 7.71574V8.82796C176.325 8.05199 176.844 7.45708 177.537 7.04323C178.246 6.62938 179.103 6.38797 180.107 6.31899C180.747 6.26726 181.093 6.61213 181.145 7.35362C181.214 8.11234 180.842 8.5262 180.029 8.59518L179.536 8.6469C177.234 8.87107 176.083 10.0523 176.083 12.1905V18.062C176.083 18.9415 175.642 19.3812 174.759 19.3812Z" fill="white"/>
<path d="M188.679 24.0887C187.744 24.0887 186.836 23.9939 185.953 23.8042C185.088 23.6145 184.3 23.3041 183.591 22.8731C183.279 22.7006 183.089 22.4851 183.02 22.2264C182.951 21.9677 182.976 21.7177 183.098 21.4763C183.236 21.2349 183.418 21.0538 183.643 20.9331C183.885 20.8297 184.145 20.8555 184.422 21.0107C185.183 21.4246 185.901 21.7005 186.576 21.8384C187.268 21.9936 187.909 22.0712 188.497 22.0712C190.92 22.0712 192.132 20.8641 192.132 18.45V16.4584C191.768 17.2171 191.197 17.812 190.418 18.2431C189.657 18.6742 188.8 18.8897 187.848 18.8897C186.706 18.8897 185.711 18.6311 184.863 18.1138C184.015 17.5792 183.357 16.8463 182.89 15.9152C182.423 14.9668 182.189 13.8632 182.189 12.6044C182.189 11.3628 182.423 10.2764 182.89 9.34528C183.357 8.39687 184.015 7.664 184.863 7.14669C185.711 6.61213 186.706 6.34486 187.848 6.34486C188.8 6.34486 189.648 6.5604 190.392 6.9915C191.154 7.40535 191.716 7.9744 192.08 8.69864V7.71574C192.08 6.83631 192.512 6.39659 193.378 6.39659C194.243 6.39659 194.676 6.83631 194.676 7.71574V18.1396C194.676 20.1227 194.165 21.6056 193.144 22.5885C192.123 23.5887 190.635 24.0887 188.679 24.0887ZM188.471 16.8463C189.579 16.8463 190.462 16.467 191.119 15.7082C191.777 14.9495 192.106 13.9149 192.106 12.6044C192.106 11.2938 191.777 10.2678 191.119 9.52634C190.462 8.76762 189.579 8.38825 188.471 8.38825C187.364 8.38825 186.481 8.76762 185.823 9.52634C185.166 10.2678 184.837 11.2938 184.837 12.6044C184.837 13.9149 185.166 14.9495 185.823 15.7082C186.481 16.467 187.364 16.8463 188.471 16.8463Z" fill="white"/>
<path d="M199.653 3.75829C199.134 3.75829 198.728 3.62895 198.433 3.3703C198.156 3.11164 198.018 2.74953 198.018 2.28394C198.018 1.30105 198.563 0.809595 199.653 0.809595C200.744 0.809595 201.289 1.30105 201.289 2.28394C201.289 3.26684 200.744 3.75829 199.653 3.75829ZM199.653 19.3553C198.788 19.3553 198.355 18.8811 198.355 17.9327V7.84507C198.355 6.91391 198.788 6.44832 199.653 6.44832C200.536 6.44832 200.977 6.91391 200.977 7.84507V17.9327C200.977 18.8811 200.536 19.3553 199.653 19.3553Z" fill="white"/>
<path d="M208.718 19.4329C207.835 19.4329 207.048 19.2605 206.355 18.9156C205.663 18.5707 205.109 18.1051 204.694 17.5188C204.296 16.9326 204.097 16.2687 204.097 15.5272C204.097 14.596 204.331 13.8632 204.798 13.3286C205.282 12.794 206.07 12.4061 207.16 12.1646C208.268 11.9232 209.756 11.8025 211.625 11.8025H212.508V11.13C212.508 10.1471 212.3 9.44012 211.885 9.00902C211.469 8.57793 210.786 8.36238 209.834 8.36238C209.28 8.36238 208.7 8.43136 208.095 8.56931C207.506 8.70726 206.892 8.94005 206.252 9.26768C205.888 9.44012 205.585 9.46599 205.343 9.34528C205.118 9.22458 204.962 9.03489 204.876 8.77624C204.789 8.51758 204.798 8.2503 204.902 7.9744C205.005 7.6985 205.222 7.49157 205.551 7.35362C206.312 7.00874 207.065 6.75871 207.809 6.60351C208.553 6.43107 209.254 6.34486 209.912 6.34486C211.643 6.34486 212.923 6.75871 213.754 7.58641C214.585 8.39687 215 9.67292 215 11.4145V18.062C215 18.9415 214.593 19.3812 213.78 19.3812C212.949 19.3812 212.534 18.9415 212.534 18.062V17.105C212.222 17.8292 211.738 18.3983 211.08 18.8121C210.422 19.226 209.635 19.4329 208.718 19.4329ZM209.237 17.5706C210.171 17.5706 210.95 17.2429 211.573 16.5877C212.196 15.9324 212.508 15.1047 212.508 14.1046V13.4062H211.651C210.388 13.4062 209.393 13.4666 208.666 13.5873C207.956 13.708 207.446 13.9149 207.134 14.208C206.84 14.4839 206.693 14.8719 206.693 15.372C206.693 16.0273 206.918 16.5618 207.368 16.9757C207.818 17.3723 208.441 17.5706 209.237 17.5706Z" fill="white"/>
<path d="M55.2132 28.4575C55.0711 28.4575 55 28.3819 55 28.2309V23.6497C55 23.4986 55.0735 23.4231 55.2203 23.4231H56.8903C57.4257 23.4231 57.8331 23.5505 58.1127 23.8054C58.3969 24.0604 58.539 24.4238 58.539 24.8959C58.539 25.3632 58.3969 25.7267 58.1127 25.9863C57.8331 26.2412 57.4257 26.3687 56.8903 26.3687H55.4335V28.2309C55.4335 28.3819 55.3601 28.4575 55.2132 28.4575ZM55.4335 25.9863H56.8548C57.6839 25.9863 58.0984 25.6228 58.0984 24.8959C58.0984 24.1642 57.6839 23.7984 56.8548 23.7984H55.4335V25.9863Z" fill="white"/>
<path d="M60.5682 28.4716C60.2461 28.4716 59.9665 28.4008 59.7297 28.2592C59.4928 28.1129 59.308 27.9075 59.1754 27.6432C59.0474 27.3741 58.9835 27.0579 58.9835 26.6944C58.9835 26.3356 59.0474 26.0241 59.1754 25.7597C59.308 25.4907 59.4928 25.283 59.7297 25.1366C59.9665 24.9903 60.2461 24.9171 60.5682 24.9171C60.8951 24.9171 61.177 24.9903 61.4139 25.1366C61.6508 25.283 61.8332 25.4907 61.9611 25.7597C62.0937 26.0241 62.1601 26.3356 62.1601 26.6944C62.1601 27.0579 62.0937 27.3741 61.9611 27.6432C61.8332 27.9075 61.6508 28.1129 61.4139 28.2592C61.177 28.4008 60.8951 28.4716 60.5682 28.4716ZM60.5682 28.1105C60.9188 28.1105 61.1983 27.9878 61.4068 27.7423C61.6152 27.4921 61.7195 27.1428 61.7195 26.6944C61.7195 26.2459 61.6152 25.899 61.4068 25.6535C61.1983 25.408 60.9188 25.2853 60.5682 25.2853C60.2176 25.2853 59.9381 25.408 59.7297 25.6535C59.5259 25.899 59.4241 26.2459 59.4241 26.6944C59.4241 27.1428 59.5259 27.4921 59.7297 27.7423C59.9381 27.9878 60.2176 28.1105 60.5682 28.1105Z" fill="white"/>
<path d="M64.1713 28.4575C64.0339 28.4575 63.9368 28.3843 63.8799 28.238L62.8069 25.257C62.769 25.1531 62.769 25.0729 62.8069 25.0162C62.8495 24.9596 62.9111 24.9313 62.9916 24.9313C63.0959 24.9313 63.1693 24.9926 63.2119 25.1154L64.1784 27.9052L65.1804 25.1366C65.2278 24.9997 65.3178 24.9313 65.4505 24.9313C65.5831 24.9313 65.6755 24.9997 65.7276 25.1366L66.7012 27.9123L67.6961 25.1083C67.7198 25.0422 67.7482 24.9974 67.7814 24.9738C67.8146 24.9454 67.8596 24.9313 67.9164 24.9313C68.0112 24.9313 68.068 24.9667 68.087 25.0375C68.1107 25.1036 68.1083 25.1767 68.0799 25.257L66.9997 28.238C66.9428 28.3843 66.8457 28.4575 66.7083 28.4575C66.5662 28.4575 66.4691 28.3843 66.417 28.238L65.4434 25.5402L64.4698 28.238C64.4129 28.3843 64.3134 28.4575 64.1713 28.4575Z" fill="white"/>
<path d="M70.4328 28.4716C69.9022 28.4716 69.4829 28.3159 69.175 28.0043C68.8718 27.688 68.7202 27.2561 68.7202 26.7085C68.7202 26.3545 68.7889 26.0429 68.9263 25.7739C69.0637 25.5048 69.2532 25.2948 69.4948 25.1437C69.7411 24.9926 70.023 24.9171 70.3405 24.9171C70.8 24.9171 71.1577 25.0658 71.4135 25.3632C71.6694 25.6606 71.7973 26.0689 71.7973 26.5882C71.7973 26.7203 71.731 26.7864 71.5983 26.7864H69.1466C69.1608 27.2113 69.2769 27.5393 69.4948 27.7706C69.7175 27.9972 70.0254 28.1105 70.4186 28.1105C70.5939 28.1105 70.7621 28.0893 70.9232 28.0468C71.089 27.9996 71.2501 27.917 71.4064 27.799C71.4917 27.7423 71.5651 27.7305 71.6267 27.7636C71.6883 27.7919 71.7215 27.8414 71.7262 27.9123C71.7357 27.9783 71.7002 28.0397 71.6196 28.0964C71.468 28.2191 71.2832 28.3135 71.0653 28.3796C70.8521 28.441 70.6413 28.4716 70.4328 28.4716ZM70.3476 25.2641C69.9875 25.2641 69.7056 25.3774 69.5019 25.6039C69.3029 25.8258 69.1868 26.1138 69.1537 26.4678H71.4064C71.3969 26.0902 71.3022 25.7951 71.1222 25.5827C70.9421 25.3703 70.6839 25.2641 70.3476 25.2641Z" fill="white"/>
<path d="M72.9012 28.4575C72.7544 28.4575 72.6809 28.3843 72.6809 28.238V25.1579C72.6809 25.0068 72.7544 24.9313 72.9012 24.9313C73.0386 24.9313 73.1073 25.0068 73.1073 25.1579V25.6039C73.2115 25.3821 73.3655 25.2121 73.5692 25.0941C73.7777 24.9761 74.0169 24.9148 74.287 24.91C74.3438 24.9053 74.3912 24.9171 74.4291 24.9454C74.467 24.9738 74.486 25.0186 74.486 25.08C74.4907 25.2121 74.422 25.2853 74.2799 25.2995L74.1804 25.3066C73.844 25.3349 73.5834 25.4458 73.3987 25.6394C73.2139 25.8282 73.1215 26.0831 73.1215 26.4041V28.238C73.1215 28.3843 73.0481 28.4575 72.9012 28.4575Z" fill="white"/>
<path d="M76.5677 28.4716C76.0371 28.4716 75.6178 28.3159 75.3099 28.0043C75.0067 27.688 74.8551 27.2561 74.8551 26.7085C74.8551 26.3545 74.9238 26.0429 75.0611 25.7739C75.1985 25.5048 75.388 25.2948 75.6297 25.1437C75.876 24.9926 76.1579 24.9171 76.4753 24.9171C76.9349 24.9171 77.2926 25.0658 77.5484 25.3632C77.8042 25.6606 77.9322 26.0689 77.9322 26.5882C77.9322 26.7203 77.8658 26.7864 77.7332 26.7864H75.2815C75.2957 27.2113 75.4117 27.5393 75.6297 27.7706C75.8523 27.9972 76.1603 28.1105 76.5535 28.1105C76.7288 28.1105 76.897 28.0893 77.0581 28.0468C77.2239 27.9996 77.385 27.917 77.5413 27.799C77.6266 27.7423 77.7 27.7305 77.7616 27.7636C77.8232 27.7919 77.8564 27.8414 77.8611 27.9123C77.8706 27.9783 77.835 28.0397 77.7545 28.0964C77.6029 28.2191 77.4181 28.3135 77.2002 28.3796C76.987 28.441 76.7762 28.4716 76.5677 28.4716ZM76.4824 25.2641C76.1224 25.2641 75.8405 25.3774 75.6368 25.6039C75.4378 25.8258 75.3217 26.1138 75.2886 26.4678H77.5413C77.5318 26.0902 77.4371 25.7951 77.257 25.5827C77.077 25.3703 76.8188 25.2641 76.4824 25.2641Z" fill="white"/>
<path d="M80.1305 28.4716C79.8178 28.4716 79.5478 28.4008 79.3204 28.2592C79.093 28.1129 78.9153 27.9075 78.7874 27.6432C78.6642 27.3741 78.6026 27.0579 78.6026 26.6944C78.6026 26.1515 78.74 25.7196 79.0148 25.3986C79.2896 25.0776 79.6615 24.9171 80.1305 24.9171C80.4053 24.9171 80.6469 24.9808 80.8554 25.1083C81.0686 25.231 81.2273 25.401 81.3315 25.6181V23.6001C81.3315 23.4538 81.4026 23.3806 81.5447 23.3806C81.6916 23.3806 81.765 23.4538 81.765 23.6001V28.238C81.765 28.3843 81.6939 28.4575 81.5518 28.4575C81.4049 28.4575 81.3315 28.3843 81.3315 28.238V27.7706C81.2273 27.9878 81.0686 28.1601 80.8554 28.2875C80.6469 28.4103 80.4053 28.4716 80.1305 28.4716ZM80.1874 28.1105C80.5379 28.1105 80.8175 27.9878 81.0259 27.7423C81.2344 27.4921 81.3386 27.1428 81.3386 26.6944C81.3386 26.2459 81.2344 25.899 81.0259 25.6535C80.8175 25.408 80.5379 25.2853 80.1874 25.2853C79.8368 25.2853 79.5573 25.408 79.3488 25.6535C79.1451 25.899 79.0432 26.2459 79.0432 26.6944C79.0432 27.1428 79.1451 27.4921 79.3488 27.7423C79.5573 27.9878 79.8368 28.1105 80.1874 28.1105Z" fill="white"/>
<path d="M86.3355 28.4716C86.056 28.4716 85.8096 28.4103 85.5964 28.2875C85.388 28.1601 85.2316 27.9878 85.1274 27.7706V28.238C85.1274 28.3843 85.0563 28.4575 84.9142 28.4575C84.7674 28.4575 84.6939 28.3843 84.6939 28.238V23.6001C84.6939 23.4538 84.7674 23.3806 84.9142 23.3806C85.0563 23.3806 85.1274 23.4538 85.1274 23.6001V25.6181C85.2316 25.401 85.388 25.231 85.5964 25.1083C85.8096 24.9808 86.056 24.9171 86.3355 24.9171C86.7998 24.9171 87.1693 25.0776 87.4441 25.3986C87.7236 25.7196 87.8634 26.1515 87.8634 26.6944C87.8634 27.0579 87.7994 27.3741 87.6715 27.6432C87.5484 27.9075 87.3707 28.1129 87.1385 28.2592C86.9111 28.4008 86.6435 28.4716 86.3355 28.4716ZM86.2716 28.1105C86.6221 28.1105 86.9017 27.9878 87.1101 27.7423C87.3186 27.4921 87.4228 27.1428 87.4228 26.6944C87.4228 26.2459 87.3186 25.899 87.1101 25.6535C86.9017 25.408 86.6221 25.2853 86.2716 25.2853C85.921 25.2853 85.6414 25.408 85.433 25.6535C85.2245 25.899 85.1203 26.2459 85.1203 26.6944C85.1203 27.1428 85.2245 27.4921 85.433 27.7423C85.6414 27.9878 85.921 28.1105 86.2716 28.1105Z" fill="white"/>
<path d="M89.4647 29.732C89.3747 29.732 89.3155 29.699 89.2871 29.6329C89.2634 29.5715 89.2681 29.4983 89.3013 29.4134L89.749 28.4008L88.3988 25.257C88.3609 25.172 88.3585 25.0965 88.3917 25.0304C88.4248 24.9643 88.4912 24.9313 88.5907 24.9313C88.6901 24.9313 88.7636 24.9903 88.811 25.1083L89.9835 27.9406L91.1632 25.1083C91.1916 25.0422 91.2224 24.9974 91.2556 24.9738C91.2887 24.9454 91.3361 24.9313 91.3977 24.9313C91.4877 24.9313 91.5446 24.9643 91.5683 25.0304C91.5967 25.0965 91.5943 25.1697 91.5612 25.2499L89.7064 29.5621C89.6495 29.6753 89.569 29.732 89.4647 29.732Z" fill="white"/>
<path d="M94.4446 28.4575C94.3024 28.4575 94.2314 28.3819 94.2314 28.2309V23.6072C94.2314 23.4561 94.3024 23.3806 94.4446 23.3806C94.5914 23.3806 94.6649 23.4561 94.6649 23.6072V28.2309C94.6649 28.3819 94.5914 28.4575 94.4446 28.4575Z" fill="white"/>
<path d="M96.1865 28.4575C96.0538 28.4575 95.9875 28.3867 95.9875 28.2451V23.593C95.9875 23.4514 96.0515 23.3806 96.1794 23.3806C96.241 23.3806 96.2883 23.3924 96.3215 23.416C96.3547 23.4396 96.3855 23.4774 96.4139 23.5293L98.3468 27.1829L100.266 23.5293C100.299 23.4774 100.33 23.4396 100.358 23.416C100.391 23.3924 100.439 23.3806 100.5 23.3806C100.628 23.3806 100.692 23.4514 100.692 23.593V28.2451C100.692 28.3867 100.626 28.4575 100.493 28.4575C100.356 28.4575 100.287 28.3867 100.287 28.2451V24.2657L98.5529 27.5441C98.5245 27.596 98.4961 27.6338 98.4677 27.6574C98.444 27.6762 98.4061 27.6857 98.3539 27.6857C98.2971 27.6857 98.2521 27.6739 98.2189 27.6503C98.1905 27.6267 98.1644 27.5913 98.1408 27.5441L96.3855 24.2728V28.2451C96.3855 28.3867 96.3191 28.4575 96.1865 28.4575Z" fill="white"/>
<path d="M101.826 28.4575C101.732 28.4575 101.67 28.4292 101.642 28.3725C101.613 28.3111 101.618 28.238 101.656 28.153L103.653 23.5789C103.71 23.4467 103.797 23.3806 103.916 23.3806C104.034 23.3806 104.122 23.4467 104.179 23.5789L106.176 28.153C106.218 28.238 106.225 28.3111 106.197 28.3725C106.173 28.4292 106.116 28.4575 106.026 28.4575C105.96 28.4575 105.906 28.441 105.863 28.4079C105.825 28.3701 105.792 28.3206 105.763 28.2592L105.259 27.0838H102.573L102.068 28.2592C102.011 28.3914 101.931 28.4575 101.826 28.4575ZM103.909 23.9612L102.736 26.7085H105.095L103.923 23.9612H103.909Z" fill="white"/>
<path d="M107.339 28.4575C107.201 28.4575 107.133 28.3843 107.133 28.238V23.6072C107.133 23.4561 107.194 23.3806 107.317 23.3806C107.374 23.3806 107.417 23.39 107.445 23.4089C107.479 23.4278 107.512 23.4632 107.545 23.5151L110.65 27.6786V23.593C110.65 23.4514 110.719 23.3806 110.856 23.3806C110.989 23.3806 111.055 23.4514 111.055 23.593V28.238C111.055 28.3843 110.996 28.4575 110.878 28.4575C110.788 28.4575 110.71 28.4126 110.643 28.3229L107.538 24.1524V28.238C107.538 28.3843 107.471 28.4575 107.339 28.4575Z" fill="white"/>
<path d="M113.929 28.4716C113.213 28.4716 112.631 28.2993 112.181 27.9547C112.1 27.8981 112.062 27.832 112.067 27.7565C112.076 27.6762 112.112 27.6172 112.173 27.5795C112.235 27.5417 112.306 27.5511 112.387 27.6078C112.605 27.773 112.834 27.8934 113.076 27.9689C113.322 28.0397 113.607 28.0751 113.929 28.0751C114.379 28.0751 114.715 27.9878 114.938 27.8131C115.165 27.6385 115.279 27.4095 115.279 27.1263C115.279 26.8903 115.196 26.7062 115.03 26.574C114.869 26.4418 114.602 26.338 114.227 26.2625L113.51 26.1138C113.064 26.0241 112.73 25.873 112.507 25.6606C112.29 25.4482 112.181 25.1649 112.181 24.8109C112.181 24.523 112.254 24.2704 112.401 24.0533C112.552 23.8361 112.761 23.6686 113.026 23.5505C113.292 23.4278 113.597 23.3664 113.943 23.3664C114.251 23.3664 114.533 23.4089 114.789 23.4939C115.049 23.5789 115.286 23.7134 115.499 23.8975C115.57 23.9541 115.601 24.0202 115.592 24.0958C115.582 24.1713 115.547 24.2279 115.485 24.2657C115.428 24.2987 115.36 24.2846 115.279 24.2232C115.08 24.0627 114.872 23.9471 114.654 23.8763C114.436 23.8007 114.199 23.763 113.943 23.763C113.545 23.763 113.225 23.8574 112.984 24.0462C112.747 24.235 112.628 24.4876 112.628 24.8038C112.628 25.054 112.704 25.2523 112.856 25.3986C113.007 25.5402 113.251 25.6441 113.588 25.7102L114.313 25.8589C114.791 25.958 115.146 26.1067 115.378 26.3049C115.611 26.4985 115.727 26.7652 115.727 27.1051C115.727 27.3741 115.653 27.6125 115.506 27.8202C115.364 28.0232 115.158 28.1837 114.888 28.3017C114.618 28.415 114.298 28.4716 113.929 28.4716Z" fill="white"/>
<path fill-rule="evenodd" clip-rule="evenodd" d="M25.1363 4.27596C25.7422 3.53069 26.9165 3.55519 27.4887 4.32504L41.7199 23.4724C42.4212 24.4159 41.725 25.732 40.5247 25.732H2.47536C1.26538 25.732 0.571687 24.3972 1.29252 23.456L11.5616 10.0477C12.1448 9.28617 13.3186 9.27752 13.9138 10.0303L20.0033 17.7333C20.8072 18.7504 22.3545 18.7363 23.1399 17.7048L26.7599 12.9505C27.0925 12.5137 27.7276 12.4208 28.1786 12.7428C28.6295 13.0649 28.7255 13.68 28.393 14.1168L22.9357 21.284C22.7307 21.5532 22.6197 21.8823 22.6197 22.2207V22.2207C22.6197 23.0746 23.3119 23.7669 24.1659 23.7669H35.49C37.1219 23.7669 38.0567 21.9074 37.0832 20.5977L27.7965 8.10284C27.0241 7.06368 25.4797 7.03014 24.663 8.03478L20.9094 12.6519C20.5628 13.0782 19.9249 13.1517 19.4847 12.816C19.0445 12.4803 18.9686 11.8626 19.3152 11.4362L25.1363 4.27596ZM19.0634 23.7669C19.9068 23.7669 20.5906 23.0831 20.5906 22.2396V22.2396C20.5906 21.8959 20.4746 21.5622 20.2615 21.2925L14.3335 13.7939C13.531 12.7787 11.9872 12.7905 11.2003 13.8179L6.0254 20.5748C5.02516 21.8808 5.95634 23.7669 7.60137 23.7669H9.87156C10.3325 23.7669 10.781 23.6095 11.1214 23.2987C12.6193 21.9311 14.4209 19.8446 14.7173 19.6214C15.2843 19.1945 15.786 19.3253 16.1468 19.7404C16.5076 20.1556 16.573 20.5417 16.0239 21.1248C15.9759 21.185 15.9289 21.2431 15.8829 21.2993C14.9552 22.4333 15.6173 23.7669 17.0824 23.7669H19.0634Z" fill="url(#paint0_linear_675_108)" stroke="url(#paint1_linear_675_108)" stroke-width="0.675993" stroke-linecap="round"/>
<defs>
<linearGradient id="paint0_linear_675_108" x1="0.787337" y1="14.9056" x2="42.0003" y2="14.9056" gradientUnits="userSpaceOnUse">
<stop stop-color="#FEC600"/>
<stop offset="0.482292" stop-color="#FF8A00"/>
<stop offset="1" stop-color="#FF0000"/>
</linearGradient>
<linearGradient id="paint1_linear_675_108" x1="0.787337" y1="14.9056" x2="42.0003" y2="14.9056" gradientUnits="userSpaceOnUse">
<stop stop-color="#FEC600"/>
<stop offset="0.482292" stop-color="#FF8A00"/>
<stop offset="1" stop-color="#FF0000"/>
</linearGradient>
</defs>
</svg>
