<svg width="264" height="45" viewBox="0 0 264 45" fill="none" xmlns="http://www.w3.org/2000/svg">
<path d="M53.0979 28.8967C51.6993 28.8967 51 28.1867 51 26.7666V2.13007C51 0.710025 51.6993 0 53.0979 0C54.4965 0 55.1958 0.710025 55.1958 2.13007V12.4991H71.1317V2.13007C71.1317 0.710025 71.831 0 73.2296 0C74.6013 0 75.2872 0.710025 75.2872 2.13007V26.7666C75.2872 28.1867 74.6013 28.8967 73.2296 28.8967C71.831 28.8967 71.1317 28.1867 71.1317 26.7666V15.9957H55.1958V26.7666C55.1958 28.1867 54.4965 28.8967 53.0979 28.8967Z" fill="white"/>
<path d="M90.7229 28.9771C87.4954 28.9771 84.9537 28.0795 83.0979 26.2843C81.242 24.4624 80.3141 21.984 80.3141 18.8492C80.3141 16.8397 80.7175 15.0713 81.5244 13.5441C82.3582 11.99 83.5013 10.7843 84.9537 9.92696C86.4061 9.06957 88.0736 8.64087 89.9564 8.64087C92.6729 8.64087 94.8111 9.51166 96.3711 11.2532C97.931 12.968 98.711 15.3392 98.711 18.3669C98.711 19.2779 98.1731 19.7333 97.0973 19.7333H84.2678C84.5637 23.8059 86.7288 25.8422 90.7632 25.8422C91.5701 25.8422 92.4174 25.7485 93.3049 25.5609C94.1925 25.3466 95.0532 24.9715 95.8869 24.4356C96.4518 24.1141 96.9359 24.0069 97.3393 24.1141C97.7697 24.1944 98.079 24.4222 98.2673 24.7973C98.4555 25.1456 98.4824 25.5475 98.3479 26.003C98.2404 26.4317 97.931 26.8068 97.42 27.1283C96.5056 27.7446 95.4297 28.2135 94.1925 28.535C92.9822 28.8297 91.8256 28.9771 90.7229 28.9771ZM90.1177 11.4944C88.4233 11.4944 87.0785 12.0168 86.0833 13.0618C85.0882 14.1067 84.483 15.5 84.2678 17.2416H95.2818C95.2011 15.4196 94.717 14.013 93.8294 13.0216C92.9418 12.0034 91.7046 11.4944 90.1177 11.4944Z" fill="white"/>
<path d="M109.487 28.9771C107.389 28.9771 105.803 28.3742 104.727 27.1685C103.678 25.9628 103.153 24.1944 103.153 21.8634V2.0497C103.153 0.683232 103.826 0 105.171 0C106.542 0 107.228 0.683232 107.228 2.0497V21.6223C107.228 24.2748 108.304 25.6011 110.456 25.6011C110.698 25.6011 110.913 25.5877 111.101 25.5609C111.289 25.5341 111.478 25.5207 111.666 25.5207C111.989 25.4939 112.217 25.5877 112.352 25.8021C112.486 25.9896 112.553 26.3915 112.553 27.0078C112.553 28.1063 112.042 28.7359 111.02 28.8967C110.751 28.9235 110.482 28.9369 110.214 28.9369C109.971 28.9637 109.729 28.9771 109.487 28.9771Z" fill="white"/>
<path d="M121.819 28.9771C119.721 28.9771 118.134 28.3742 117.058 27.1685C116.01 25.9628 115.485 24.1944 115.485 21.8634V2.0497C115.485 0.683232 116.157 0 117.502 0C118.874 0 119.56 0.683232 119.56 2.0497V21.6223C119.56 24.2748 120.636 25.6011 122.787 25.6011C123.029 25.6011 123.245 25.5877 123.433 25.5609C123.621 25.5341 123.809 25.5207 123.998 25.5207C124.32 25.4939 124.549 25.5877 124.684 25.8021C124.818 25.9896 124.885 26.3915 124.885 27.0078C124.885 28.1063 124.374 28.7359 123.352 28.8967C123.083 28.9235 122.814 28.9369 122.545 28.9369C122.303 28.9637 122.061 28.9771 121.819 28.9771Z" fill="white"/>
<path d="M136.173 28.9771C134.182 28.9771 132.461 28.5618 131.009 27.7312C129.556 26.9006 128.427 25.7351 127.62 24.2346C126.84 22.7074 126.45 20.8989 126.45 18.809C126.45 16.7191 126.84 14.9239 127.62 13.4235C128.427 11.8963 129.556 10.7174 131.009 9.88677C132.461 9.05617 134.182 8.64087 136.173 8.64087C138.109 8.64087 139.804 9.05617 141.256 9.88677C142.709 10.7174 143.838 11.8963 144.645 13.4235C145.452 14.9239 145.855 16.7191 145.855 18.809C145.855 20.8989 145.452 22.7074 144.645 24.2346C143.838 25.7351 142.709 26.9006 141.256 27.7312C139.804 28.5618 138.109 28.9771 136.173 28.9771ZM136.173 25.8422C137.84 25.8422 139.185 25.2394 140.207 24.0337C141.229 22.828 141.74 21.0864 141.74 18.809C141.74 16.5315 141.229 14.8034 140.207 13.6244C139.185 12.4187 137.84 11.8159 136.173 11.8159C134.478 11.8159 133.12 12.4187 132.098 13.6244C131.076 14.8034 130.565 16.5315 130.565 18.809C130.565 21.0864 131.076 22.828 132.098 24.0337C133.12 25.2394 134.478 25.8422 136.173 25.8422Z" fill="white"/>
<path d="M161.352 28.8967C160.545 28.8967 159.98 28.6422 159.657 28.1331C159.361 27.5972 159.388 26.9542 159.738 26.204L170.671 1.76836C170.94 1.15212 171.276 0.710024 171.68 0.44209C172.083 0.147363 172.554 0 173.092 0C173.576 0 174.02 0.147363 174.423 0.44209C174.853 0.710024 175.203 1.15212 175.472 1.76836L186.405 26.204C186.755 26.981 186.782 27.624 186.486 28.1331C186.217 28.6422 185.693 28.8967 184.913 28.8967C184.321 28.8967 183.85 28.7493 183.501 28.4546C183.151 28.1599 182.842 27.7044 182.573 27.0881L180.233 21.7027H165.83L163.53 27.0881C163.261 27.7312 162.965 28.2001 162.643 28.4948C162.32 28.7627 161.89 28.8967 161.352 28.8967ZM173.011 4.90319L167.323 18.3267H178.821L173.092 4.90319H173.011Z" fill="white"/>
<path d="M193.649 28.8967C192.277 28.8967 191.591 28.2135 191.591 26.847V12.1374H189.332C188.229 12.1374 187.678 11.6149 187.678 10.57C187.678 9.52506 188.229 9.00258 189.332 9.00258H191.591V8.64087C191.591 5.98833 192.25 3.99222 193.568 2.65255C194.886 1.28608 196.809 0.482281 199.337 0.24114L200.588 0.160761C201.153 0.107173 201.57 0.227743 201.839 0.52247C202.134 0.790405 202.282 1.13872 202.282 1.56741C202.282 1.96931 202.175 2.33103 201.96 2.65255C201.744 2.97407 201.422 3.16162 200.991 3.21521L200.225 3.2554C198.638 3.36257 197.481 3.80466 196.755 4.58167C196.029 5.35868 195.666 6.52419 195.666 8.07821V9.00258H199.579C200.709 9.00258 201.274 9.52506 201.274 10.57C201.274 11.6149 200.709 12.1374 199.579 12.1374H195.666V26.847C195.666 28.2135 194.993 28.8967 193.649 28.8967Z" fill="white"/>
<path d="M206.465 28.8967C205.093 28.8967 204.408 28.2135 204.408 26.847V10.7709C204.408 9.40449 205.067 8.72125 206.384 8.72125C207.702 8.72125 208.361 9.40449 208.361 10.7709V12.4991C208.899 11.2934 209.706 10.369 210.782 9.72601C211.885 9.08296 213.216 8.70786 214.776 8.60068C215.771 8.5203 216.309 9.05617 216.39 10.2083C216.497 11.3872 215.919 12.0302 214.655 12.1374L213.888 12.2178C210.311 12.5661 208.523 14.4015 208.523 17.7238V26.847C208.523 28.2135 207.837 28.8967 206.465 28.8967Z" fill="white"/>
<path d="M221.475 4.62186C220.668 4.62186 220.036 4.42091 219.579 4.01901C219.149 3.61711 218.933 3.05445 218.933 2.33103C218.933 0.803801 219.781 0.0401896 221.475 0.0401896C223.17 0.0401896 224.017 0.803801 224.017 2.33103C224.017 3.85825 223.17 4.62186 221.475 4.62186ZM221.475 28.8565C220.13 28.8565 219.458 28.1197 219.458 26.646V10.9719C219.458 9.52506 220.13 8.80163 221.475 8.80163C222.847 8.80163 223.533 9.52506 223.533 10.9719V26.646C223.533 28.1197 222.847 28.8565 221.475 28.8565Z" fill="white"/>
<path d="M237.942 28.9771C235.925 28.9771 234.177 28.5618 232.697 27.7312C231.245 26.8738 230.115 25.6815 229.308 24.1543C228.502 22.6002 228.098 20.7783 228.098 18.6884C228.098 15.5804 228.986 13.1288 230.761 11.3336C232.536 9.53845 234.93 8.64087 237.942 8.64087C238.883 8.64087 239.865 8.78824 240.887 9.08296C241.936 9.3509 242.904 9.80639 243.792 10.4494C244.222 10.7174 244.464 11.0657 244.518 11.4944C244.599 11.8963 244.532 12.2848 244.316 12.6599C244.128 13.0082 243.846 13.2493 243.469 13.3833C243.093 13.4905 242.662 13.4101 242.178 13.1422C241.533 12.6867 240.874 12.3652 240.201 12.1776C239.529 11.9633 238.883 11.8561 238.265 11.8561C236.355 11.8561 234.876 12.4589 233.827 13.6646C232.805 14.8435 232.294 16.5315 232.294 18.7286C232.294 20.9257 232.805 22.6538 233.827 23.9131C234.876 25.1456 236.355 25.7619 238.265 25.7619C238.883 25.7619 239.516 25.6681 240.161 25.4805C240.833 25.293 241.506 24.9715 242.178 24.516C242.662 24.248 243.079 24.1811 243.429 24.315C243.805 24.449 244.074 24.7035 244.236 25.0786C244.424 25.4269 244.478 25.8154 244.397 26.2441C244.343 26.646 244.101 26.981 243.671 27.2489C242.81 27.8651 241.869 28.3072 240.847 28.5752C239.852 28.8431 238.883 28.9771 237.942 28.9771Z" fill="white"/>
<path d="M254.237 28.9771C252.865 28.9771 251.641 28.7091 250.565 28.1733C249.49 27.6374 248.629 26.914 247.983 26.003C247.365 25.092 247.055 24.0605 247.055 22.9084C247.055 21.4615 247.419 20.3228 248.145 19.4922C248.898 18.6616 250.122 18.0588 251.816 17.6836C253.537 17.3085 255.85 17.121 258.755 17.121H260.127V16.076C260.127 14.5488 259.804 13.4503 259.159 12.7805C258.513 12.1106 257.451 11.7757 255.972 11.7757C255.111 11.7757 254.21 11.8829 253.268 12.0972C252.354 12.3116 251.399 12.6733 250.404 13.1824C249.839 13.4503 249.369 13.4905 248.992 13.3029C248.642 13.1154 248.4 12.8206 248.266 12.4187C248.131 12.0168 248.145 11.6015 248.306 11.1729C248.468 10.7442 248.804 10.4226 249.315 10.2083C250.498 9.67242 251.668 9.28392 252.825 9.04278C253.981 8.77484 255.07 8.64087 256.093 8.64087C258.782 8.64087 260.772 9.28392 262.063 10.57C263.355 11.8293 264 13.812 264 16.5181V26.847C264 28.2135 263.368 28.8967 262.104 28.8967C260.813 28.8967 260.167 28.2135 260.167 26.847V25.36C259.683 26.4853 258.93 27.3695 257.908 28.0125C256.886 28.6556 255.662 28.9771 254.237 28.9771ZM255.044 26.0834C256.496 26.0834 257.706 25.5743 258.675 24.5562C259.643 23.538 260.127 22.2519 260.127 20.6979V19.6128H258.796C256.832 19.6128 255.286 19.7066 254.156 19.8941C253.053 20.0817 252.26 20.4032 251.776 20.8587C251.318 21.2874 251.09 21.8902 251.09 22.6672C251.09 23.6854 251.44 24.516 252.139 25.159C252.838 25.7753 253.806 26.0834 255.044 26.0834Z" fill="white"/>
<path d="M51.3704 43.0203C51.1495 43.0203 51.0391 42.903 51.0391 42.6684V35.5526C51.0391 35.318 51.1532 35.2007 51.3814 35.2007H53.9759C54.8076 35.2007 55.4405 35.3987 55.8748 35.7946C56.3164 36.1905 56.5372 36.7551 56.5372 37.4883C56.5372 38.2142 56.3164 38.7787 55.8748 39.182C55.4405 39.5779 54.8076 39.7759 53.9759 39.7759H51.7126V42.6684C51.7126 42.903 51.5985 43.0203 51.3704 43.0203ZM51.7126 39.182H53.9207C55.2087 39.182 55.8527 38.6174 55.8527 37.4883C55.8527 36.3518 55.2087 35.7836 53.9207 35.7836H51.7126V39.182Z" fill="white"/>
<path d="M59.6896 43.0423C59.1891 43.0423 58.7549 42.9324 58.3869 42.7124C58.0189 42.4851 57.7318 42.1662 57.5257 41.7556C57.327 41.3376 57.2276 40.8464 57.2276 40.2818C57.2276 39.7246 57.327 39.2407 57.5257 38.8301C57.7318 38.4121 58.0189 38.0895 58.3869 37.8622C58.7549 37.6349 59.1891 37.5213 59.6896 37.5213C60.1975 37.5213 60.6354 37.6349 61.0034 37.8622C61.3714 38.0895 61.6548 38.4121 61.8535 38.8301C62.0596 39.2407 62.1626 39.7246 62.1626 40.2818C62.1626 40.8464 62.0596 41.3376 61.8535 41.7556C61.6548 42.1662 61.3714 42.4851 61.0034 42.7124C60.6354 42.9324 60.1975 43.0423 59.6896 43.0423ZM59.6896 42.4814C60.2343 42.4814 60.6685 42.2908 60.9924 41.9095C61.3162 41.5209 61.4781 40.9784 61.4781 40.2818C61.4781 39.5853 61.3162 39.0464 60.9924 38.6651C60.6685 38.2838 60.2343 38.0932 59.6896 38.0932C59.145 38.0932 58.7107 38.2838 58.3869 38.6651C58.0704 39.0464 57.9121 39.5853 57.9121 40.2818C57.9121 40.9784 58.0704 41.5209 58.3869 41.9095C58.7107 42.2908 59.145 42.4814 59.6896 42.4814Z" fill="white"/>
<path d="M65.2872 43.0203C65.0738 43.0203 64.9229 42.9067 64.8345 42.6794L63.1675 38.0492C63.1086 37.8879 63.1086 37.7632 63.1675 37.6753C63.2337 37.5873 63.3294 37.5433 63.4545 37.5433C63.6164 37.5433 63.7305 37.6386 63.7968 37.8292L65.2982 42.1625L66.8549 37.8622C66.9285 37.6496 67.0684 37.5433 67.2744 37.5433C67.4805 37.5433 67.6241 37.6496 67.705 37.8622L69.2175 42.1735L70.7632 37.8182C70.8 37.7156 70.8441 37.6459 70.8956 37.6093C70.9472 37.5653 71.0171 37.5433 71.1054 37.5433C71.2526 37.5433 71.3409 37.5983 71.3704 37.7083C71.4072 37.8109 71.4035 37.9246 71.3593 38.0492L69.6812 42.6794C69.5929 42.9067 69.442 43.0203 69.2286 43.0203C69.0078 43.0203 68.8569 42.9067 68.7759 42.6794L67.2634 38.4891L65.7509 42.6794C65.6626 42.9067 65.508 43.0203 65.2872 43.0203Z" fill="white"/>
<path d="M75.0148 43.0423C74.1904 43.0423 73.5391 42.8004 73.0607 42.3165C72.5896 41.8252 72.3541 41.1543 72.3541 40.3038C72.3541 39.7539 72.4608 39.27 72.6742 38.8521C72.8877 38.4341 73.1821 38.1079 73.5575 37.8732C73.9402 37.6386 74.3781 37.5213 74.8713 37.5213C75.5852 37.5213 76.1409 37.7522 76.5383 38.2142C76.9358 38.6761 77.1345 39.3103 77.1345 40.1168C77.1345 40.3221 77.0315 40.4248 76.8254 40.4248H73.0165C73.0386 41.0847 73.2189 41.5943 73.5575 41.9535C73.9034 42.3055 74.3818 42.4814 74.9927 42.4814C75.265 42.4814 75.5263 42.4484 75.7766 42.3825C76.0342 42.3091 76.2844 42.1808 76.5273 41.9975C76.6598 41.9095 76.7739 41.8912 76.8695 41.9425C76.9652 41.9865 77.0167 42.0635 77.0241 42.1735C77.0388 42.2761 76.9836 42.3715 76.8585 42.4594C76.623 42.6501 76.3359 42.7967 75.9974 42.8994C75.6662 42.9947 75.3386 43.0423 75.0148 43.0423ZM74.8823 38.0602C74.3229 38.0602 73.885 38.2362 73.5685 38.5881C73.2594 38.9327 73.0791 39.38 73.0275 39.9299H76.5273C76.5126 39.3433 76.3654 38.8851 76.0857 38.5551C75.806 38.2252 75.4049 38.0602 74.8823 38.0602Z" fill="white"/>
<path d="M78.8495 43.0203C78.6214 43.0203 78.5073 42.9067 78.5073 42.6794V37.8952C78.5073 37.6606 78.6214 37.5433 78.8495 37.5433C79.063 37.5433 79.1697 37.6606 79.1697 37.8952V38.5881C79.3316 38.2435 79.5708 37.9795 79.8873 37.7962C80.2112 37.6129 80.5829 37.5176 81.0024 37.5103C81.0907 37.503 81.1643 37.5213 81.2232 37.5653C81.2821 37.6093 81.3115 37.6789 81.3115 37.7742C81.3189 37.9795 81.2122 38.0932 80.9914 38.1152L80.8368 38.1262C80.3142 38.1702 79.9094 38.3425 79.6224 38.6431C79.3353 38.9364 79.1918 39.3323 79.1918 39.8309V42.6794C79.1918 42.9067 79.0777 43.0203 78.8495 43.0203Z" fill="white"/>
<path d="M84.5456 43.0423C83.7213 43.0423 83.0699 42.8004 82.5915 42.3165C82.1204 41.8252 81.8849 41.1543 81.8849 40.3038C81.8849 39.7539 81.9916 39.27 82.2051 38.8521C82.4185 38.4341 82.7129 38.1079 83.0883 37.8732C83.471 37.6386 83.909 37.5213 84.4021 37.5213C85.116 37.5213 85.6717 37.7522 86.0692 38.2142C86.4666 38.6761 86.6653 39.3103 86.6653 40.1168C86.6653 40.3221 86.5623 40.4248 86.3562 40.4248H82.5473C82.5694 41.0847 82.7497 41.5943 83.0883 41.9535C83.4342 42.3055 83.9126 42.4814 84.5235 42.4814C84.7959 42.4814 85.0572 42.4484 85.3074 42.3825C85.565 42.3091 85.8153 42.1808 86.0581 41.9975C86.1906 41.9095 86.3047 41.8912 86.4004 41.9425C86.4961 41.9865 86.5476 42.0635 86.5549 42.1735C86.5697 42.2761 86.5145 42.3715 86.3893 42.4594C86.1538 42.6501 85.8668 42.7967 85.5282 42.8994C85.197 42.9947 84.8695 43.0423 84.5456 43.0423ZM84.4131 38.0602C83.8538 38.0602 83.4158 38.2362 83.0993 38.5881C82.7902 38.9327 82.6099 39.38 82.5584 39.9299H86.0581C86.0434 39.3433 85.8962 38.8851 85.6165 38.5551C85.3368 38.2252 84.9357 38.0602 84.4131 38.0602Z" fill="white"/>
<path d="M90.0806 43.0423C89.5948 43.0423 89.1753 42.9324 88.822 42.7124C88.4687 42.4851 88.1927 42.1662 87.994 41.7556C87.8026 41.3376 87.7069 40.8464 87.7069 40.2818C87.7069 39.4386 87.9204 38.7677 88.3473 38.2692C88.7742 37.7706 89.3519 37.5213 90.0806 37.5213C90.5075 37.5213 90.8828 37.6203 91.2067 37.8182C91.5379 38.0089 91.7845 38.2728 91.9464 38.6101V35.4756C91.9464 35.2483 92.0568 35.1347 92.2776 35.1347C92.5058 35.1347 92.6198 35.2483 92.6198 35.4756V42.6794C92.6198 42.9067 92.5094 43.0203 92.2886 43.0203C92.0605 43.0203 91.9464 42.9067 91.9464 42.6794V41.9535C91.7845 42.2908 91.5379 42.5584 91.2067 42.7564C90.8828 42.947 90.5075 43.0423 90.0806 43.0423ZM90.1689 42.4814C90.7136 42.4814 91.1478 42.2908 91.4717 41.9095C91.7955 41.5209 91.9574 40.9784 91.9574 40.2818C91.9574 39.5853 91.7955 39.0464 91.4717 38.6651C91.1478 38.2838 90.7136 38.0932 90.1689 38.0932C89.6243 38.0932 89.19 38.2838 88.8662 38.6651C88.5497 39.0464 88.3914 39.5853 88.3914 40.2818C88.3914 40.9784 88.5497 41.5209 88.8662 41.9095C89.19 42.2908 89.6243 42.4814 90.1689 42.4814Z" fill="white"/>
<path d="M99.7204 43.0423C99.2861 43.0423 98.9034 42.947 98.5722 42.7564C98.2483 42.5584 98.0054 42.2908 97.8435 41.9535V42.6794C97.8435 42.9067 97.7331 43.0203 97.5123 43.0203C97.2841 43.0203 97.1701 42.9067 97.1701 42.6794V35.4756C97.1701 35.2483 97.2841 35.1347 97.5123 35.1347C97.7331 35.1347 97.8435 35.2483 97.8435 35.4756V38.6101C98.0054 38.2728 98.2483 38.0089 98.5722 37.8182C98.9034 37.6203 99.2861 37.5213 99.7204 37.5213C100.442 37.5213 101.016 37.7706 101.443 38.2692C101.877 38.7677 102.094 39.4386 102.094 40.2818C102.094 40.8464 101.995 41.3376 101.796 41.7556C101.605 42.1662 101.329 42.4851 100.968 42.7124C100.615 42.9324 100.199 43.0423 99.7204 43.0423ZM99.621 42.4814C100.166 42.4814 100.6 42.2908 100.924 41.9095C101.248 41.5209 101.41 40.9784 101.41 40.2818C101.41 39.5853 101.248 39.0464 100.924 38.6651C100.6 38.2838 100.166 38.0932 99.621 38.0932C99.0763 38.0932 98.6421 38.2838 98.3182 38.6651C97.9944 39.0464 97.8325 39.5853 97.8325 40.2818C97.8325 40.9784 97.9944 41.5209 98.3182 41.9095C98.6421 42.2908 99.0763 42.4814 99.621 42.4814Z" fill="white"/>
<path d="M104.582 45C104.442 45 104.35 44.9487 104.306 44.846C104.269 44.7507 104.276 44.6371 104.328 44.5051L105.023 42.9324L102.926 38.0492C102.867 37.9172 102.863 37.7999 102.915 37.6973C102.966 37.5946 103.069 37.5433 103.224 37.5433C103.378 37.5433 103.492 37.6349 103.566 37.8182L105.388 42.2175L107.22 37.8182C107.265 37.7156 107.312 37.6459 107.364 37.6093C107.415 37.5653 107.489 37.5433 107.585 37.5433C107.725 37.5433 107.813 37.5946 107.85 37.6973C107.894 37.7999 107.89 37.9136 107.839 38.0382L104.957 44.736C104.869 44.912 104.744 45 104.582 45Z" fill="white"/>
<path d="M112.318 43.0203C112.097 43.0203 111.987 42.903 111.987 42.6684V35.4866C111.987 35.252 112.097 35.1347 112.318 35.1347C112.546 35.1347 112.66 35.252 112.66 35.4866V42.6684C112.66 42.903 112.546 43.0203 112.318 43.0203Z" fill="white"/>
<path d="M115.024 43.0203C114.818 43.0203 114.715 42.9104 114.715 42.6904V35.4646C114.715 35.2447 114.815 35.1347 115.013 35.1347C115.109 35.1347 115.183 35.153 115.234 35.1897C115.286 35.2263 115.333 35.285 115.378 35.3657L118.381 41.0407L121.361 35.3657C121.413 35.285 121.461 35.2263 121.505 35.1897C121.556 35.153 121.63 35.1347 121.726 35.1347C121.924 35.1347 122.024 35.2447 122.024 35.4646V42.6904C122.024 42.9104 121.921 43.0203 121.715 43.0203C121.501 43.0203 121.395 42.9104 121.395 42.6904V36.5095L118.701 41.6016C118.657 41.6822 118.612 41.7409 118.568 41.7776C118.531 41.8069 118.473 41.8215 118.392 41.8215C118.303 41.8215 118.233 41.8032 118.182 41.7666C118.138 41.7299 118.097 41.6749 118.06 41.6016L115.333 36.5205V42.6904C115.333 42.9104 115.23 43.0203 115.024 43.0203Z" fill="white"/>
<path d="M123.786 43.0203C123.639 43.0203 123.543 42.9763 123.499 42.8884C123.455 42.793 123.462 42.6794 123.521 42.5474L126.624 35.4426C126.712 35.2373 126.848 35.1347 127.032 35.1347C127.216 35.1347 127.352 35.2373 127.441 35.4426L130.543 42.5474C130.609 42.6794 130.62 42.793 130.576 42.8884C130.539 42.9763 130.451 43.0203 130.311 43.0203C130.208 43.0203 130.123 42.9947 130.057 42.9434C129.998 42.8847 129.947 42.8077 129.903 42.7124L129.119 40.8867H124.945L124.162 42.7124C124.073 42.9177 123.948 43.0203 123.786 43.0203ZM127.021 36.0365L125.199 40.3038H128.865L127.043 36.0365H127.021Z" fill="white"/>
<path d="M132.35 43.0203C132.136 43.0203 132.03 42.9067 132.03 42.6794V35.4866C132.03 35.252 132.125 35.1347 132.317 35.1347C132.405 35.1347 132.471 35.1494 132.516 35.1787C132.567 35.208 132.619 35.263 132.67 35.3437L137.495 41.8106V35.4646C137.495 35.2447 137.601 35.1347 137.815 35.1347C138.021 35.1347 138.124 35.2447 138.124 35.4646V42.6794C138.124 42.9067 138.032 43.0203 137.848 43.0203C137.708 43.0203 137.587 42.9507 137.484 42.8114L132.659 36.3335V42.6794C132.659 42.9067 132.556 43.0203 132.35 43.0203Z" fill="white"/>
<path d="M142.588 43.0423C141.476 43.0423 140.571 42.7747 139.872 42.2395C139.747 42.1515 139.688 42.0488 139.695 41.9315C139.71 41.8069 139.765 41.7152 139.861 41.6566C139.957 41.5979 140.067 41.6126 140.192 41.7006C140.531 41.9572 140.888 42.1442 141.263 42.2615C141.646 42.3715 142.087 42.4264 142.588 42.4264C143.287 42.4264 143.81 42.2908 144.156 42.0195C144.509 41.7482 144.685 41.3926 144.685 40.9527C144.685 40.5861 144.557 40.3001 144.299 40.0948C144.049 39.8895 143.633 39.7282 143.052 39.6109L141.936 39.38C141.245 39.2407 140.726 39.006 140.38 38.6761C140.041 38.3461 139.872 37.9062 139.872 37.3563C139.872 36.9091 139.986 36.5168 140.214 36.1795C140.45 35.8422 140.774 35.582 141.186 35.3987C141.598 35.208 142.073 35.1127 142.61 35.1127C143.088 35.1127 143.526 35.1787 143.924 35.3107C144.329 35.4426 144.697 35.6516 145.028 35.9376C145.138 36.0255 145.186 36.1282 145.171 36.2455C145.157 36.3628 145.101 36.4508 145.006 36.5095C144.917 36.5608 144.811 36.5388 144.685 36.4435C144.376 36.1942 144.053 36.0145 143.714 35.9046C143.375 35.7873 143.007 35.7286 142.61 35.7286C141.992 35.7286 141.495 35.8752 141.119 36.1685C140.751 36.4618 140.567 36.8541 140.567 37.3453C140.567 37.7339 140.685 38.0419 140.921 38.2692C141.156 38.4891 141.535 38.6504 142.058 38.7531L143.184 38.984C143.927 39.138 144.479 39.369 144.84 39.6769C145.201 39.9775 145.381 40.3918 145.381 40.9197C145.381 41.3376 145.267 41.7079 145.039 42.0305C144.818 42.3458 144.498 42.5951 144.078 42.7784C143.659 42.9544 143.162 43.0423 142.588 43.0423Z" fill="white"/>
<path fill-rule="evenodd" clip-rule="evenodd" d="M7.50391 9.27192C8.71071 9.82051 9.24397 11.2428 8.69499 12.4488C7.61053 14.8309 6.28603 18.2264 5.49359 21.7974C4.69064 25.4157 4.49712 28.9386 5.39035 31.7301C6.22377 34.3346 8.05059 36.4916 11.9097 37.5406C15.9569 38.6408 22.3038 38.526 31.9766 35.9935C33.2591 35.6577 34.5712 36.4244 34.9072 37.706C35.2432 38.9876 34.476 40.2987 33.1935 40.6345C23.1953 43.2522 15.8839 43.593 10.6494 42.17C5.22672 40.696 2.14842 37.3511 0.817316 33.1913C-0.453977 29.2183 -0.0714161 24.7141 0.806322 20.7587C1.69457 16.756 3.15536 13.031 4.3248 10.4621C4.87378 9.25621 6.29712 8.72333 7.50391 9.27192Z" fill="url(#paint0_linear_298_820)"/>
<path fill-rule="evenodd" clip-rule="evenodd" d="M18.69 3.22872C19.9442 3.66035 20.6108 5.02628 20.1788 6.27961L13.9755 24.2791C13.5436 25.5324 12.1767 26.1985 10.9225 25.7669C9.66823 25.3352 9.00164 23.9693 9.43358 22.716L15.6369 4.71652C16.0688 3.4632 17.4357 2.79708 18.69 3.22872Z" fill="white"/>
<path fill-rule="evenodd" clip-rule="evenodd" d="M27.3746 3.13146C28.6288 3.5631 29.2954 4.92902 28.8635 6.18235L22.6602 24.1818C22.2282 25.4351 20.8613 26.1013 19.6071 25.6696C18.3529 25.238 17.6863 23.8721 18.1182 22.6187L24.3215 4.61927C24.7535 3.36594 26.1204 2.69983 27.3746 3.13146Z" fill="white"/>
<path fill-rule="evenodd" clip-rule="evenodd" d="M33.3796 11.0562C34.6338 11.4879 35.3004 12.8538 34.8684 14.1071L28.6651 32.1066C28.2332 33.3599 26.8663 34.026 25.6121 33.5944C24.3578 33.1628 23.6913 31.7968 24.1232 30.5435L30.3265 12.5441C30.7584 11.2907 32.1253 10.6246 33.3796 11.0562Z" fill="white"/>
<defs>
<linearGradient id="paint0_linear_298_820" x1="2.02574" y1="23.2656" x2="32.8153" y2="23.2656" gradientUnits="userSpaceOnUse">
<stop stop-color="#FEC600"/>
<stop offset="0.482292" stop-color="#FF8A00"/>
<stop offset="1" stop-color="#FF0000"/>
</linearGradient>
</defs>
</svg>
