<svg id="Layer_1" data-name="Layer 1" xmlns="http://www.w3.org/2000/svg" viewBox="0 0 332.21774 147.6666">
  <defs>
    <style>
      .cls-1 {
        fill: #bd9640;
      }
    </style>
  </defs>
  <g>
    <path class="cls-1" d="M561.69866,347.30425c-1.95908,4.291-9.69128,10.21867-13.70662,10.21867a1.72931,1.72931,0,0,1-1.8828-1.73777c0-1.93231,3.3096-4.65152,5.08263-5.84949l-.04-.05811c-3.60425.99287-28.76658,8.07071-40.4225,8.07071-3.78934,0-6.84139-1.29134-6.84139-4.77361a8.18087,8.18087,0,0,1,.54644-2.78016l-.04093-.10118q-5.28347,3.56094-10.56869,7.12374l-1.00343-.93564c2.207-1.95713,7.55485-7.57584,6.46752-8.663-1.49458-1.49458-43.74548,9.67311-51.83055,9.67311-1.16369,0-2.8451-.5437-2.8451-1.99433,0-1.7531,3.3429-5.31058,4.99863-6.78992l-.01905-.14592c-19.04287,2.32054-38.02481,5.52515-56.825,9.3183l-.84412-1.03575c2.40873-1.03584,7.87479-3.21419,7.87479-5.52046,0-1.14542-1.16456-2.19934-.59654-3.31907-4.93486,1.445-34.97276,9.42514-45.20431,9.42514-2.28852,0-4.621-.578-4.621-3.12648a5.64649,5.64649,0,0,1,.3428-1.82069c-1.32239.71814-8.93671,4.78592-10.5229,4.78592-.58795,0-1.61656-.79734-1.61656-1.17883,0-2.19269,5.62955-5.47934,7.12647-6.28049l-.10772-.13644c-15.48687,3.76638-43.53854,8.18234-52.00654,8.18234-1.18078,0-6.44556-.29661-6.44556-2.94423,0-3.66442,12.56773-9.66833,16.82059-9.66833.5146,0,1.93993.81638,1.93993,1.1254,0,1.69392-4.58755,4.1718-6.10694,4.94912l-.844-1.03672c1.45542-.74392,4.91572-2.73357,5.69157-4.02208-8.57535,1.70818-16.349,6.89482-16.349,9.09035,0,1.58042,4.34925,1.4097,5.02636,1.4097,9.46,0,38.46451-4.69255,61.31537-10.41039l.84413,1.03672c-4.52994,1.09689-13.65749,4.86043-15.69714,8.75086,2.71971-.5608,8.3807-3.70544,12.05851-5.77508l.9242.98623c-2.99775,5.011-.02578,4.98818.74959,5.06827,6.9792.71442,36.90888-6.69451,49.78006-10.4561l.844,1.03672c-.80692.34808-3.07784,1.17219-3.07784,2.42446,0,.83553.857,1.69772.857,2.55415,0,1.73973-2.28714,3.01114-3.41733,3.65583l.08341.09249c17.93085-3.29241,35.824-6.2595,53.8998-8.52759l.81736.99765c-9.29632,8.30726-6.74978,8.18713-5.15314,8.22434,7.32875.16975,44.41313-9.66364,51.04845-9.66364,1.71677,0,2.28909.908,2.23186,2.03252-.06485,1.31527-1.71111,3.59479-1.71111,3.59479l.04679.09054q3.50646-2.362,7.00918-4.725l1.00527.93662a10.895,10.895,0,0,0-1.9037,5.11319c0,1.81786,1.174,3.07872,4.764,3.07872,11.81336,0,34.17737-6.2176,46.70125-9.735l.75066.9203c-11.54352,6.35209-10.21966,8.21575-9.73709,8.40561,1.94951.76873,10.28353-4.17082,13.05811-10.006Zm-109.627-2.84413,8.582-2.23567-.845-1.03672-8.58112,2.23655Z" transform="translate(-257.40621 -210.28166)"/>
    <path class="cls-1" d="M530.17849,323.34946l-3.61764-4.59146c8.16427-5.47368,17.43588-13.68181,17.43588-28.64548,0-10.25012-5.22287-20.28421-10.2721-29.98887-4.77937-9.18517-9.29348-17.86024-9.29348-26.2391,0-8.40647,5.68532-16.3466,16.90067-23.60289l3.21711,4.78465C539.76674,217.81786,529.22,225.243,529.22,237.17942c0,8.74411,4.51324,17.60171,9.29154,26.97871,5.00449,9.81951,10.17961,19.97334,10.17961,30.45239C548.69114,307.01046,538.668,317.06125,530.17849,323.34946Zm52.8578-80.67205v-2.46127H567.07692V214.897h18.88456v-2.42679H561.58986V320.89346H589.624v-4.75837h-22.547V242.67741ZM454.354,212.47017V320.89346h5.488V212.47017ZM278.85313,242.67741v-2.46127H262.89376v-22.99h18.88407v-4.75593H257.40621V320.89346H285.4403v-2.42924H262.89376V242.67741Zm134.60134-30.20724V320.89346h26.86962v-4.75837H418.942V212.47017Zm75.0968,82.065v26.35834h-5.632V212.31654c8.12043,1.36156,32.3728,15.89452,32.3728,41.63678C515.29207,272.60466,501.60362,287.05763,488.55127,294.53512Zm21.95293-41.53843c0-28.44712-22.09689-35.10676-22.09689-35.10676v69.81669S510.5042,275.46363,510.5042,252.99669ZM288.067,265.16526c0,32.72429,27.64587,57.85224,57.81786,57.85224h.00518c32.52349,0,53.94511-27.18713,53.94511-54.19016a56.54317,56.54317,0,0,0-6.86424-27.222l-1.51939.94755a48.35869,48.35869,0,0,1,5.00108,21.01251c0,31.42514-24.67488,54.792-54.349,54.792h-.00283c-28.75281,0-50.04757-22.527-50.04757-50.13576,0-28.37982,23.43071-53.54156,54.184-53.54156a51.09623,51.09623,0,0,1,26.81424,7.51655l1.18938-1.505a56.16264,56.16264,0,0,0-32.20022-10.19572C312.58553,210.49585,288.067,234.197,288.067,265.16526Z" transform="translate(-257.40621 -210.28166)"/>
  </g>
</svg>
